<svg xmlns="http://www.w3.org/2000/svg" viewBox="0 0 200 200"><defs></defs><path d="M192.458 98.919c-9.521-2.469-20.1-2.219-29.864-2.219a208.1 208.1 0 0 0-26.843 1.52c-1.567.2-5.723 1.086-2.6 2.7 1.767.912 4.6.875 6.533 1.089q3.532.392 7.079.581l.243.013c8.4.461 16.8.852 25.211.842a112.645 112.645 0 0 0 14.658-.693c.767-.1 6.689-1.646 6.91-2.9.061-.346-.307-.668-1.327-.933zm-3.512 5.871a26.125 26.125 0 0 0-2.9-.054c-1.167 0-2.334.02-3.5.04l-.772.014a.392.392 0 0 0 0 .783c1.94-.04 3.882-.074 5.823-.051.447.006.9 0 1.344.051.505.054.502-.729.005-.783zm-40.428 3.13a26.125 26.125 0 0 0-2.9-.054c-1.167 0-2.334.02-3.5.04l-.772.014a.392.392 0 0 0 0 .783c1.94-.04 3.882-.074 5.823-.051.447.006.9 0 1.344.051.505.054.502-.729.005-.783zm-24.256-3.13a26.147 26.147 0 0 0-2.9-.054c-1.167 0-2.333.02-3.5.04l-.772.014a.392.392 0 0 0 0 .783c1.94-.04 3.882-.074 5.823-.051.447.006.9 0 1.345.051.504.054.5-.729.004-.783zm3.004-8.868c1.94-.04 3.883-.073 5.823-.05.447 0 .9 0 1.345.05.5.054.5-.729 0-.782a26.147 26.147 0 0 0-2.9-.055q-1.749.008-3.5.04l-.772.015a.391.391 0 0 0 .004.782zm-1.825 12.259c.444-.022.89-.037 1.335-.047.336-.007.673-.012 1.009-.007.141 0 .282.007.422.016h.105a.088.088 0 0 0 .032.011l.051.011a.392.392 0 0 0 .208-.755 3.447 3.447 0 0 0-.759-.066c-.345-.007-.69 0-1.035 0-.456.01-.913.025-1.368.048a.4.4 0 0 0-.392.391.4.4 0 0 0 .392.398zm17.404 10.955c-2.522-.108-5.056-.059-7.579-.055q-4.572.007-9.143.04l-1.987.015a.391.391 0 0 0 0 .782q2.758-.021 5.515-.035c3.24-.016 6.48-.03 9.719-.015 1.158.005 2.318 0 3.475.05.503.022.502-.761 0-.782z" fill="#bef8d4"></path><path d="M111.716 68.489A51.541 51.541 0 0 0 96.69 59.8c-2.115 10.567-7.8 27.549-34.943 22.378C30.726 76.269 14.5 129.1 9.31 150.167a122.6 122.6 0 0 1 15.527 3.15c2.034-8.547 5.836-21.954 11.281-30.59 0 0-2.778 13.647-3.073 24.72 4.346-1.034 13.8-2.944 22.793-2.522a136.213 136.213 0 0 0 22.18-1.322c.026-10.713 0-29.263-.5-32.392.001 0 29.047-8.383 34.198-42.722z" fill="#66c1fc"></path><path d="M98.817 52c-.975 0-1.231 3.326-2.127 7.8a51.541 51.541 0 0 1 15.026 8.688 71.771 71.771 0 0 0 .77-9.628S102.094 52 98.817 52zM7.423 158.6l15.677 2.813s.585-3.275 1.733-8.1a122.6 122.6 0 0 0-15.527-3.15c-1.272 5.18-1.883 8.437-1.883 8.437zm48.415-13.675c-9-.422-18.447 1.488-22.793 2.522a42.067 42.067 0 0 0 .474 8.466s.615-.2 1.765-.506c.113 2.869.21 5.739.267 8.61.032 1.67.055 3.342.027 5.013a.391.391 0 0 0 .782 0c.054-3.184-.045-6.372-.147-9.554q-.069-2.133-.153-4.266a88.207 88.207 0 0 1 19.225-2.34c9.571-.168 17.094-.938 20.581-1.36.028.655.057 1.309.083 1.964.139 3.357.259 6.715.325 10.075.033 1.67.056 3.342.027 5.013a.392.392 0 0 0 .783 0c.054-3.184-.046-6.372-.148-9.554q-.121-3.8-.294-7.594c.875-.112 1.345-.182 1.345-.182s.021-3.121.031-7.629a136.213 136.213 0 0 1-22.18 1.322z" fill="#66c1fc"></path><path d="M57.212 157.862h-8.963a.391.391 0 0 0 0 .782h3.381c.243 2.867.439 5.742.537 8.617.033.976.056 1.953.028 2.928a.391.391 0 0 0 .782 0c.053-1.846-.045-3.7-.147-5.543q-.141-2.562-.346-5.12l-.071-.882h4.8a.391.391 0 0 0-.001-.782z" fill="#66c1fc"></path><path d="m147.08 64.438-.01.009.003-.002.007-.007zm.02-.013.013-.014a.285.285 0 0 1-.032.027l.009-.007z" fill="#c98bef"></path><path d="M163.8 61.752c-.14-5.42-1.477-16.325-5.1-22.265a5.283 5.283 0 0 1-3.67.513 8.19 8.19 0 0 1-1.306-.348 14.889 14.889 0 0 1 1.552 3.764 12.578 12.578 0 0 1 .407 4.82 9.54 9.54 0 0 1-2 4.81 12.194 12.194 0 0 1-4.814 3.454c-.194.084-.389.167-.585.243a.328.328 0 0 1-.163.019 22.515 22.515 0 0 1-.795 3.482l-.032.093c-1.225 3.628-2.758 5.466-.467 6.051a7.42 7.42 0 0 0 2.16.133c-.054-.3-.1-.613-.128-.923a8.276 8.276 0 0 1 0-1.766 6.248 6.248 0 0 0-1.216.315l-.091.035-.017.006h-.007c-.048.023-.1.044-.144.067-.077.039-.153.08-.227.126l-.061.041c-.068.07-.057.047-.029.022-.366.341-.916-.21-.551-.556a2.693 2.693 0 0 1 .892-.49 8.72 8.72 0 0 1 2.83-.476.354.354 0 0 1 .225.061c.691-.049 1.383-.07 2.076-.058a28.965 28.965 0 0 1 8.9 1.566c.288.1.5.162.606.461a7.832 7.832 0 0 1 1.472.032c.164.023.268-.661.29-1.833.009-.408.007-.877-.007-1.399z" fill="#c98bef"></path><path d="M149.129 48.534a17.06 17.06 0 0 0 1.488-.8q.789-.463 1.537-.993c.152-.108.3-.217.453-.33.044-.032.087-.066.131-.1l-.032.025c.391-.306.946.243.551.554a19.663 19.663 0 0 1-2.839 1.854c-.415.224-.858.45-1.317.648a9.429 9.429 0 0 1-1.066.388 7.843 7.843 0 0 1 .419 3.666c.179-.107.353-.22.524-.34a13.557 13.557 0 0 0 1.153-.906 10.9 10.9 0 0 0 2.617-3.242 6.783 6.783 0 0 0 .691-2.217 8.165 8.165 0 0 0-.226-2.788 7.992 7.992 0 0 0-1.918-3.894 3.951 3.951 0 0 0-.641-.548c.007 1.169 0 2.337-.022 3.5a.391.391 0 0 1-.782 0c.036-1.7.029-3.4.006-5.1l-4.7.9a.426.426 0 0 1-.07.007.322.322 0 0 1 .113.392 23.421 23.421 0 0 0-.839 3.02l-.01.049c-.448 2.117-1.2 7.087 2.214 6.951a6.8 6.8 0 0 0 2.565-.696z" fill="#c98bef"></path><path d="M179.34 67.056a3.523 3.523 0 0 0 .926-1.015c.024-.042.045-.085.067-.128a14.344 14.344 0 0 1-1.747-.778 12.506 12.506 0 0 1-1.517-.933c-1.234 1.884-5.074 2.358-8.655 2.354a11.02 11.02 0 0 0 1 .565 10.807 10.807 0 0 0 3.672 1.005c2.065.223 4.502.222 6.254-1.07z" fill="#ffd869"></path><path d="M194.454 48.643a4.462 4.462 0 0 0-4.705.251.939.939 0 0 0-.361.639c-1.075-.535-5.633-2.529-10.076-.446 0-.031 0-.065.006-.094a.947.947 0 0 0-.373-.8 4.462 4.462 0 0 0-4.7-.251.968.968 0 0 0-.546.895c.054 2.156.427 9.382 3.009 6.024a13.122 13.122 0 0 0 2.383-4.478c-.043 2.751-.291 9.573-1.672 13.1l.23.16a13.036 13.036 0 0 0 10.279 2.022c.491-.111.7.644.208.755a13.36 13.36 0 0 1-7.038-.252 4.328 4.328 0 0 1-1.729 1.808c-2.135 1.287-4.915 1.163-7.28.8a11.125 11.125 0 0 1-5.061-2.245 56.773 56.773 0 0 1-4.71-.361c.116.57.224 1.142.317 1.716a57.118 57.118 0 0 1 .633 5.834 71.48 71.48 0 0 1 .118 3.645c3.748 1.762 15.88 6.809 22.968 2.015 6.633-4.487 4.879-20.211 3.812-26.792a15.4 15.4 0 0 0 1.83 2.973c2.582 3.359 2.955-3.868 3.009-6.024a.968.968 0 0 0-.551-.894zm-58.19 28.875s4.842 6.285 15.361 1.187a23.16 23.16 0 0 0 .88-3.863 30.363 30.363 0 0 0-.176-.507 16.716 16.716 0 0 1-16.065 3.183z" fill="#ffd869"></path><path d="M154.512 88.028a33.085 33.085 0 0 0-.965-9.5c-.057-.248-.12-.494-.181-.741a36.269 36.269 0 0 0-.861-2.942 23.16 23.16 0 0 1-.88 3.863c-1.028 3.163-2.947 6.321-6.5 7.834a.909.909 0 0 0-.556.884c.07 1.214.474 3.718 2.583 4.245 1.834.459 4.767-.381 7.232-2.388q.088-.625.128-1.255z" fill="#9a55c7"></path><path d="M161.5 66.067q-.083-.393-.174-.786c-.19-.067-.381-.132-.573-.193l-.051-.015a27.243 27.243 0 0 0-11.046-1.233l-.008.062a8.8 8.8 0 0 0 .116 2.555c.019.1.039.207.062.31a10.877 10.877 0 0 0 .695 2.133 19.242 19.242 0 0 0 1.124 2.027 16.363 16.363 0 0 1 1.06 2.144q.144.348.276.7a35.317 35.317 0 0 1 1.093 3.592 39.752 39.752 0 0 1 1.241 8.075 22.543 22.543 0 0 1-.06 3.053c-.019.206-.036.413-.063.618a29.331 29.331 0 0 1-.9 3.627 5.966 5.966 0 0 0-.306 2.861.828.828 0 0 0 .154.335.965.965 0 0 0 .095.106.279.279 0 0 0 .083.069 1.78 1.78 0 0 0 .8.266 8.9 8.9 0 0 0 3.745-.369 4.619 4.619 0 0 0 1.628-.822 1.719 1.719 0 0 0 .366-.441c0-.014.011-.031.018-.056a28.659 28.659 0 0 0 .731-3.676c.37-2.376.626-4.772.792-7.171.158-2.269.243-4.56.219-6.85a55.64 55.64 0 0 0-1.117-10.921z" fill="#9a55c7"></path><path d="M187.525 60.862a5.5 5.5 0 0 0-.369-1.072 6.5 6.5 0 0 0-.325-.621 3.185 3.185 0 0 1-.5.542 2.54 2.54 0 0 1-.174.136l.548 1.317a.382.382 0 0 1-.039.3.4.4 0 0 1-.234.18.4.4 0 0 1-.3-.04.432.432 0 0 1-.179-.234l-.475-1.141a3.1 3.1 0 0 1-.522.165 4.442 4.442 0 0 0 .708 1.915c.319.476.907.967 1.473.562.624-.449.545-1.348.388-2.009zM145.96 50a3.29 3.29 0 0 1-2.683-3.106 13.55 13.55 0 0 1 .315-4.777 5.272 5.272 0 0 0-3.439.406c-2.134 1.17-3.906 5.8-4.541 7.115-.359.741.318.922.974.94a.381.381 0 0 1 .465-.493c.4.129.94-.223 1.288-.4a9.629 9.629 0 0 0 1.132-.693 9.046 9.046 0 0 0 1.929-1.872.4.4 0 0 1 .535-.14.393.393 0 0 1 .14.535A10.265 10.265 0 0 1 139.8 49.7a9.512 9.512 0 0 1-1.348.788 4.476 4.476 0 0 1-.889.353c-.1 1.941-.527 11.591 1.156 11.8 1.374.171 6.133-1.44 8.571-2.311l.032-.093a22.515 22.515 0 0 0 .795-3.482.442.442 0 0 1-.318-.5l.332-2.434a.362.362 0 0 1 .02-.1.329.329 0 0 1 .151-.18l.017-.012c.045-.026.089-.056.133-.083a7.843 7.843 0 0 0-.419-3.666 5.154 5.154 0 0 1-2.073.22zm6.477-10.858a7.463 7.463 0 0 0-.732-.811 4.14 4.14 0 0 0-.329-.285l-.014-.012-.039-.027-.073-.053-.073-.047-.522.254v.439a4.715 4.715 0 0 1 1.451 1.188 9.585 9.585 0 0 1 2 4.683 7.356 7.356 0 0 1-.844 5.182 11.978 11.978 0 0 1-2.843 3.325 13.365 13.365 0 0 1-1.477 1.087l-.07.043-.223 1.637c.081-.035.161-.069.241-.1a11.028 11.028 0 0 0 4.357-3.31 9.861 9.861 0 0 0 1.375-8.294 13.048 13.048 0 0 0-2.185-4.899z" fill="#ff8684"></path><path d="M134.834 25.355a5.8 5.8 0 0 0-.8 6.012.391.391 0 0 0 .676-.395 4.982 4.982 0 0 1 .679-5.064c.311-.387-.236-.944-.555-.553zm1.58 1.62a8.794 8.794 0 0 0-.309 5.014c.113.491.868.283.755-.208a8.034 8.034 0 0 1 .308-4.6c.175-.471-.581-.675-.754-.206zm5.521 20.005a.4.4 0 0 0-.535.14 9.046 9.046 0 0 1-1.929 1.864 9.629 9.629 0 0 1-1.132.693c-.348.181-.885.533-1.288.4a.381.381 0 0 0-.465.493.372.372 0 0 0 .257.261 1.332 1.332 0 0 0 .722.01 4.476 4.476 0 0 0 .889-.353 9.512 9.512 0 0 0 1.346-.788 10.265 10.265 0 0 0 2.273-2.189.393.393 0 0 0-.138-.531zm5.145 17.458-.007.007c-.028.025-.039.048.029-.022l-.01.006z"></path><path d="M163.263 73.721a57.118 57.118 0 0 0-.633-5.834 41.73 41.73 0 0 0-.317-1.716 44.027 44.027 0 0 0-.242-1.135c-.007-.03-.017-.055-.025-.081-.1-.3-.318-.361-.606-.461a28.965 28.965 0 0 0-8.9-1.566 23.568 23.568 0 0 0-2.076.058.354.354 0 0 0-.225-.061 8.72 8.72 0 0 0-2.83.476 2.693 2.693 0 0 0-.892.49c-.365.346.185.9.551.556l.01-.009a.285.285 0 0 0 .032-.027l-.013.014.061-.041c.074-.046.15-.087.227-.126.047-.023.1-.044.144-.067h.007l.017-.006.091-.035a6.248 6.248 0 0 1 1.216-.315 8.276 8.276 0 0 0 0 1.766c.028.31.074.618.128.923a12.171 12.171 0 0 0 1.567 4.138 20.346 20.346 0 0 1 1.7 3.447c.028.076.052.154.08.23a36.269 36.269 0 0 1 1.037 3.449c.061.247.124.493.181.741a33.085 33.085 0 0 1 .965 9.5q-.04.628-.133 1.252a11.63 11.63 0 0 1-.123.7c-.167.785-.447 1.541-.658 2.315a13.34 13.34 0 0 0-.443 2.211 3.382 3.382 0 0 0 .1 1.4 2.028 2.028 0 0 0 1.888 1.258 9.358 9.358 0 0 0 4.744-.716 2.883 2.883 0 0 0 1.792-1.747c.181-.658.3-1.333.425-2a80.26 80.26 0 0 0 1-7.985c.194-2.443.291-4.9.271-7.348a71.485 71.485 0 0 0-.118-3.648zm-.871 10.123c-.166 2.4-.422 4.8-.792 7.171a28.659 28.659 0 0 1-.731 3.676.773.773 0 0 1-.018.056 1.719 1.719 0 0 1-.366.441 4.619 4.619 0 0 1-1.628.822 8.9 8.9 0 0 1-3.745.369 1.78 1.78 0 0 1-.8-.266.279.279 0 0 1-.083-.069.965.965 0 0 1-.095-.106.828.828 0 0 1-.154-.335 5.966 5.966 0 0 1 .306-2.861 29.331 29.331 0 0 0 .9-3.627c.027-.2.044-.412.063-.618a22.543 22.543 0 0 0 .06-3.053 39.752 39.752 0 0 0-1.241-8.075 35.317 35.317 0 0 0-1.093-3.592q-.132-.354-.276-.7a16.363 16.363 0 0 0-1.06-2.144 19.242 19.242 0 0 1-1.124-2.027 10.877 10.877 0 0 1-.695-2.133 7.078 7.078 0 0 1-.062-.31 8.8 8.8 0 0 1-.116-2.555l.008-.062a27.243 27.243 0 0 1 11.05 1.227l.051.015c.192.061.383.126.573.193q.091.393.174.786a55.64 55.64 0 0 1 1.115 10.927 86.736 86.736 0 0 1-.221 6.85zm-8.149-48.974-.013.016a.329.329 0 0 0-.1.261v.014c0 .035.011.069.015.1a3.817 3.817 0 0 0 1.411 2.665 1.716 1.716 0 0 0 1.923.136 2.717 2.717 0 0 0 .95-1.5 5.8 5.8 0 0 0 .226-1.183.393.393 0 0 0-.5-.378 4.635 4.635 0 0 1-1.455.344 3.244 3.244 0 0 1-1.087-.11 3.4 3.4 0 0 1-.391-.133l-.109-.05c-.047-.024-.094-.048-.14-.074a2.783 2.783 0 0 1-.187-.117c-.016-.01-.031-.023-.047-.033a.362.362 0 0 0-.221-.073.4.4 0 0 0-.089.013.362.362 0 0 0-.186.102zm1.167 1.122a4.506 4.506 0 0 0 2.367-.041c-.01.047-.019.094-.031.141a5.041 5.041 0 0 1-.147.491l-.034.091-.018.045v.011a3.025 3.025 0 0 1-.163.315 2.974 2.974 0 0 1-.087.131l-.008.012-.006.007c-.027.031-.053.062-.081.091s-.072.07-.11.1l-.012.007-.074.047-.065.034c-.028.009-.056.019-.085.027l-.078.014a1.136 1.136 0 0 1-.682-.18 2.446 2.446 0 0 1-.926-1.227c-.027-.074-.05-.15-.073-.225.097.045.203.079.313.109zm-1.386-2.016a.6.6 0 1 0-.468-.585.537.537 0 0 0 .468.585zm4.213 0a.6.6 0 1 0-.468-.585.536.536 0 0 0 .468.585z"></path><path d="M148.035 49.783a9.429 9.429 0 0 0 1.065-.383c.459-.2.9-.424 1.317-.648a19.663 19.663 0 0 0 2.839-1.854c.395-.311-.16-.86-.551-.554l.032-.025-.131.1c-.149.113-.3.222-.453.33q-.747.528-1.537.993c-.47.277-.969.556-1.488.8a6.8 6.8 0 0 1-2.563.7c-3.416.136-2.662-4.834-2.214-6.951l.01-.049a23.421 23.421 0 0 1 .839-3.02.322.322 0 0 0-.113-.392.426.426 0 0 0 .07-.007l4.7-.9c.023 1.7.03 3.4-.006 5.1a.391.391 0 0 0 .782 0c.025-1.168.029-2.336.022-3.5a3.951 3.951 0 0 1 .641.548 7.992 7.992 0 0 1 1.918 3.894 8.165 8.165 0 0 1 .226 2.788 6.783 6.783 0 0 1-.691 2.217 10.9 10.9 0 0 1-2.617 3.242 13.557 13.557 0 0 1-1.153.906c-.171.12-.345.233-.524.34-.044.027-.088.057-.133.083l-.017.012a.329.329 0 0 0-.151.18.29.29 0 0 0-.012.042l-.008.061q-.167 1.216-.332 2.434a.442.442 0 0 0 .318.5.328.328 0 0 0 .163-.019c.2-.076.391-.159.585-.243a12.194 12.194 0 0 0 4.814-3.454 9.54 9.54 0 0 0 2-4.81 12.578 12.578 0 0 0-.407-4.82 14.889 14.889 0 0 0-1.552-3.764 8.19 8.19 0 0 0 1.307.34 5.283 5.283 0 0 0 3.673-.512 3.7 3.7 0 0 0 .956-.837 5.465 5.465 0 0 0 1.132-3.614 10.472 10.472 0 0 0-.325-2.029A3.15 3.15 0 0 0 162 31.1a3.283 3.283 0 0 0-.29-2.293 1.951 1.951 0 0 0-.922-.924 3.544 3.544 0 0 0-2.03-3.054 4.349 4.349 0 0 0-2.03-.273 2.04 2.04 0 0 0-2.284-1.094 2.607 2.607 0 0 0-1.68 2 4.231 4.231 0 0 0-1.375-.281 3.759 3.759 0 0 0-3.332 2.2 1.438 1.438 0 0 0-1.506.735 1.66 1.66 0 0 0 .6 1.934c-.023.1-.043.209-.062.315a7.892 7.892 0 0 0-.645-.9 7.263 7.263 0 0 0-.734-.765 2.211 2.211 0 0 0-.89-.6c-.653-.148-1 .494-1 1.049a3.232 3.232 0 0 0 .033.468c-.546-.452-1.134-.652-1.5.005a1.949 1.949 0 0 0 .158 1.651c.044.1.1.2.144.3a1.9 1.9 0 0 0-1.154-.267.8.8 0 0 0-.5 1.041 2.243 2.243 0 0 0 .666 1.066c.319.309.69.557 1.021.853a5.494 5.494 0 0 1 .935 1.078 5.657 5.657 0 0 1 .92 2.674.388.388 0 0 0 .136.275.444.444 0 0 0 .157.445.392.392 0 0 0-.391.265 23.522 23.522 0 0 0-.78 2.754c-.026.115-.049.232-.074.348a13.55 13.55 0 0 0-.315 4.777A3.29 3.29 0 0 0 145.96 50a5.154 5.154 0 0 0 2.075-.217zm6.592-5.747a9.861 9.861 0 0 1-1.375 8.294 11.028 11.028 0 0 1-4.357 3.31c-.08.036-.16.07-.241.1l.223-1.637.07-.043a13.365 13.365 0 0 0 1.477-1.087 11.978 11.978 0 0 0 2.843-3.325 7.356 7.356 0 0 0 .844-5.182 9.585 9.585 0 0 0-2-4.683 4.715 4.715 0 0 0-1.451-1.188v-.439l.522-.254.073.047.073.053.039.027.014.012a5.887 5.887 0 0 1 .697.662c.118.13.249.285.364.434a13.048 13.048 0 0 1 2.185 4.899zm-4.06-10.936a.655.655 0 0 1 .027-.136.433.433 0 0 1 .345-.3 1.446 1.446 0 0 1 .689.061 3.017 3.017 0 0 1 .319.351.393.393 0 0 0 .654-.173c.016-.089.039-.178.058-.267.164-.439.351-.871.551-1.3a6.736 6.736 0 0 1 1.132-1.871 1.649 1.649 0 0 1 .324-.173c.049-.018.127-.027.186-.046l.26.068c.239.116.483.224.729.324a9.44 9.44 0 0 0 3.061.727l.727 2.533a.352.352 0 0 0 .019.051c.11.465.207.932.284 1.4a5.02 5.02 0 0 1-.49 3.217 3.492 3.492 0 0 1-3.39 1.757 5.789 5.789 0 0 1-3.4-1.144c-.037-.041-.07-.086-.109-.127-.094-.1-.193-.2-.3-.3a2.587 2.587 0 0 1-.268-.418 2.213 2.213 0 0 1-.228-.828 4.847 4.847 0 0 0 .055-.865 1.426 1.426 0 0 1 .047-.17.331.331 0 0 0-.192-.438.445.445 0 0 0-.081-.044c.188.076-.09-.049-.144-.081s-.081-.052-.12-.078a5.4 5.4 0 0 1-.5-.8 1.987 1.987 0 0 1-.245-.93zm.418 3.618a3.309 3.309 0 0 0 .079.394 1.679 1.679 0 0 0-.455.168q-.071-.529-.177-1.052zm-7.705-2.966c-.493-.448-1.288-.848-1.5-1.522a.712.712 0 0 1-.028-.142.812.812 0 0 1 .108.027 4.434 4.434 0 0 1 .646.257 6.349 6.349 0 0 1 1.176.718c.388.3.9-.172.553-.554a5.47 5.47 0 0 1-.822-1.168 2.616 2.616 0 0 1-.407-1.193.444.444 0 0 1 .022-.157c.039-.044-.025 0 .051.02.183.041.438.326.568.452a4.187 4.187 0 0 1 .8 1.08c.2.383.886.113.715-.3a8.67 8.67 0 0 1-.522-1.749c-.023-.124-.12-.512 0-.621.077-.072.306.169.4.247a7.029 7.029 0 0 1 1.86 2.553c.146.338.615.187.715-.094.164-.458.164-.943.283-1.412a2.288 2.288 0 0 1 .079-.234c.09-.186.234-.447.4-.491a.17.17 0 0 1 .186.087 1.678 1.678 0 0 1 .095.385 2.364 2.364 0 0 1-.027.623c-.063.424-.17.839-.214 1.265a2.579 2.579 0 0 0-.008.382.573.573 0 0 0-.007.058.516.516 0 0 0 .03.156 10.378 10.378 0 0 0 .724 2.118 13.463 13.463 0 0 1 .651 2.594l-4.48.856a6.428 6.428 0 0 0-2.047-4.238zm42.537 25.369a2.2 2.2 0 0 1-2.194.429.394.394 0 0 0-.481.273.4.4 0 0 0 .273.482 2.575 2.575 0 0 0 .76.157 5.283 5.283 0 0 0 .7 2.08 2.284 2.284 0 0 0 1.777 1.269A1.79 1.79 0 0 0 188.3 62.5a4.016 4.016 0 0 0-.237-2.559 6.461 6.461 0 0 0-.635-1.269c-.052-.081-.107-.173-.17-.257a4.567 4.567 0 0 0 .348-1.528.394.394 0 0 0-.287-.378.462.462 0 0 0-.576.34.477.477 0 0 0 .054.311 3.114 3.114 0 0 1-.98 1.961zm1.014.048a6.5 6.5 0 0 1 .325.621 5.5 5.5 0 0 1 .369 1.072c.157.661.236 1.56-.393 2.011-.566.405-1.154-.086-1.473-.562a4.442 4.442 0 0 1-.708-1.915 3.1 3.1 0 0 0 .522-.165l.475 1.141a.432.432 0 0 0 .179.234.4.4 0 0 0 .3.04.4.4 0 0 0 .234-.18.382.382 0 0 0 .039-.3q-.273-.659-.548-1.317c.06-.043.118-.089.174-.136a3.185 3.185 0 0 0 .505-.544zm1.092 6.499a13.036 13.036 0 0 1-10.279-2.022c-.1-.069-.169-.117-.23-.161a3.588 3.588 0 0 1-.345-.277c-.376-.332-.931.219-.553.553.175.156.362.3.553.441a12.506 12.506 0 0 0 1.517.933 14.344 14.344 0 0 0 1.747.778c-.022.043-.043.086-.067.128a3.523 3.523 0 0 1-.926 1.015c-1.752 1.292-4.189 1.293-6.254 1.07a10.807 10.807 0 0 1-3.672-1.005 11.02 11.02 0 0 1-1-.565 12.474 12.474 0 0 1-1.824-1.408 17.441 17.441 0 0 1-2.79-3.4c.014.522.016.991.008 1.4a17.936 17.936 0 0 0 1.864 2.2 14.041 14.041 0 0 0 1.351 1.182 11.125 11.125 0 0 0 5.061 2.245c2.365.365 5.146.489 7.28-.8a4.328 4.328 0 0 0 1.729-1.808 13.349 13.349 0 0 0 7.038.251c.491-.106.283-.861-.208-.75zm-6.742-8.716a1.952 1.952 0 0 0 .8.861l1.018.722a.328.328 0 0 0 .064.034.383.383 0 0 0 .155.09.4.4 0 0 0 .481-.273 2.311 2.311 0 0 1 .523-.662 2.953 2.953 0 0 0 .591-.774 1.2 1.2 0 0 0-.539-1.681 2.177 2.177 0 0 0-.973-.084 3.566 3.566 0 0 0-.982.225 2.774 2.774 0 0 0-.922.534.937.937 0 0 0-.216 1.008zm-.545-2.413c.222.071.5-.172.615-.541s.033-.726-.189-.8-.5.172-.614.541-.034.729.188.8zm5.808 0c.222-.07.307-.427.19-.8s-.392-.613-.614-.542-.307.427-.189.8.391.613.613.542zm-6.6 31.361q-.058-3.249-.146-6.5c-.029-1.1-.023-2.208-.094-3.307v-.049c-.016-.5-.8-.5-.782 0q.039 1.255.073 2.51.081 2.966.142 5.933c.046 2.282.083 4.564.094 6.847.008 1.779.02 3.562-.07 5.34-.014.273-.031.547-.058.819 0 .043-.008.085-.013.127a4.462 4.462 0 0 1-.7-1.169 5.191 5.191 0 0 1-.133-.328.393.393 0 0 0-.768.1 6.863 6.863 0 0 1-.07 1.072 2.828 2.828 0 0 1-.208.8 1.208 1.208 0 0 1-.127.194.5.5 0 0 1-.077-.076 1.758 1.758 0 0 1-.179-.327 5.3 5.3 0 0 1-.253-.744 10.2 10.2 0 0 1-.23-1.022c-.077-.46-.737-.307-.768.1a7.3 7.3 0 0 1-.173 1.1 4.173 4.173 0 0 1-.157.538v-.018l-.012-.1c-.2-1.608-.247-3.24-.313-4.857a370.809 370.809 0 0 1-.208-6.833q-.072-3.108-.116-6.217c-.016-1.035.012-2.079-.04-3.113v-.046a.391.391 0 0 0-.782 0q.014 1.385.035 2.769.045 3.175.115 6.351c.054 2.373.117 4.746.215 7.118.069 1.652.115 3.323.33 4.965.044.338.057.926.392 1.128.434.262.863-.31 1.019-.644a3.587 3.587 0 0 0 .142-.36 3.148 3.148 0 0 0 .339.634.8.8 0 0 0 1.192.265 1.962 1.962 0 0 0 .593-1.234c.261.428.728 1.063 1.276.917.4-.107.418-.678.455-1.007a44.135 44.135 0 0 0 .14-4.7c0-2.316-.033-4.647-.075-6.976zM174.9 98.3c-.012.029-.052 0 0 0zm12.9-12.87q-.058-3.249-.147-6.5c-.029-1.1-.023-2.209-.094-3.307v-.049c-.016-.5-.8-.5-.783 0q.041 1.256.073 2.51.081 2.966.142 5.933c.047 2.282.083 4.564.094 6.847.009 1.778.02 3.562-.07 5.34-.014.273-.03.547-.057.819 0 .042-.009.085-.014.127a4.5 4.5 0 0 1-.7-1.169 5.191 5.191 0 0 1-.133-.328.394.394 0 0 0-.769.1 6.842 6.842 0 0 1-.07 1.071 2.793 2.793 0 0 1-.208.8 1.212 1.212 0 0 1-.126.194.459.459 0 0 1-.078-.076 1.819 1.819 0 0 1-.179-.327 5.427 5.427 0 0 1-.252-.744 10.2 10.2 0 0 1-.23-1.022c-.078-.46-.737-.307-.769.1a7.191 7.191 0 0 1-.173 1.105 4.019 4.019 0 0 1-.157.538v-.018l-.012-.1c-.2-1.608-.247-3.24-.314-4.857a370.809 370.809 0 0 1-.208-6.833q-.07-3.108-.116-6.217c-.015-1.035.012-2.079-.04-3.113v-.046a.392.392 0 0 0-.783 0q.014 1.385.035 2.769.046 3.176.116 6.351c.053 2.373.117 4.746.215 7.117.068 1.653.115 3.324.33 4.966.044.338.057.926.392 1.128.433.262.862-.31 1.019-.644a3.587 3.587 0 0 0 .142-.36 3.145 3.145 0 0 0 .338.634.8.8 0 0 0 1.192.265 1.963 1.963 0 0 0 .594-1.221c.261.428.728 1.063 1.275.917.4-.107.419-.678.455-1.007a43.614 43.614 0 0 0 .14-4.7c.006-2.331-.026-4.662-.07-6.993zm-4.941 12.4c-.012.029-.052 0 0 0zM95.09 26.632a12.275 12.275 0 0 0-7.847 7.3c-.181.47.575.674.754.208a11.452 11.452 0 0 1 7.3-6.754.391.391 0 0 0-.207-.754zm-.109 3.612a9.2 9.2 0 0 0-5.02 5.624c-.152.481.6.687.754.208a8.453 8.453 0 0 1 4.661-5.156.4.4 0 0 0 .141-.535.4.4 0 0 0-.536-.141zm27.834 20.608a.4.4 0 0 0-.273.482 8.178 8.178 0 0 1-1.129 5.432c-.264.431.412.824.675.4a9.014 9.014 0 0 0 1.208-6.035.394.394 0 0 0-.481-.279zm5.231-1.452a12.417 12.417 0 0 0-.728-2.889c-.18-.465-.937-.263-.755.208a12.252 12.252 0 0 1-1.763 11.866c-.31.39.24.947.554.553a13.058 13.058 0 0 0 2.692-9.738zm16.868 3.121a.4.4 0 0 0-.391-.392q-2.071.129-4.137.321a.421.421 0 0 0-.26.706l.028.04a1.179 1.179 0 0 0 .006.209l.023.325c.016.247.031.5.054.742a6.75 6.75 0 0 0 .235 1.347 3.048 3.048 0 0 0 1.44 1.9 2.046 2.046 0 0 0 2.211-.172 2.685 2.685 0 0 0 .805-1.945c.072-1.019-.001-2.061-.014-3.081zm-1.128 4.257a1.216 1.216 0 0 1-1.574.214 2.472 2.472 0 0 1-1.056-1.64 8.428 8.428 0 0 1-.176-1.39c-.016-.248-.01-.52-.052-.776q1.6-.142 3.21-.247c.011.7.025 1.405.025 2.108a2.845 2.845 0 0 1-.377 1.731zm-81.123 5.615h.012c.065-.005.129-.01.193-.011a.391.391 0 0 0 0-.782 2.878 2.878 0 0 0-2.619 1.9.393.393 0 0 0 .273.481A.4.4 0 0 0 61 63.7l.03-.078.01-.023a2.794 2.794 0 0 1 .218-.374l.029-.04.028-.034.063-.072a3.169 3.169 0 0 1 .244-.235l.037-.03.05-.036A2.378 2.378 0 0 1 62 62.6c.048-.026.1-.049.147-.071l.023-.009.076-.028a2.347 2.347 0 0 1 .341-.091zm-5.563 7.43a.394.394 0 0 0-.554 0 .4.4 0 0 0 0 .554l1.038 1.193a.393.393 0 0 0 .553 0 .4.4 0 0 0 0-.553zm6.143-2.613c-.388 0-.7.472-.7 1.054s.315 1.053.7 1.053.7-.472.7-1.053-.313-1.054-.7-1.054z"></path><path d="M64.579 59.429a41.63 41.63 0 0 0-.753-1.753 3.521 3.521 0 0 0 .243-.664.376.376 0 0 0-.019-.253.411.411 0 0 0 .02-.073c.578-3.417-.082-7.214-2.733-9.641a7.668 7.668 0 0 0-4.145-2 7.026 7.026 0 0 0-4.5 1 9.213 9.213 0 0 0-3.314 3.5 10.08 10.08 0 0 0-9.226-1.73 8.532 8.532 0 0 0-5.732 7.193 7.8 7.8 0 0 0 .909 4.731 2.449 2.449 0 0 0-1.18 1.8 2.417 2.417 0 0 0 .552 1.8 8.68 8.68 0 0 0-5.787 4.564 7.639 7.639 0 0 0 .73 7.787 7.348 7.348 0 0 0 3.075 2.491c-1.418 1.849-1.328 4.605-.956 6.784a9.4 9.4 0 0 0 3.983 6.5 6.847 6.847 0 0 0 3.448 1.09c-.647 2.527 1.677 4.974 3.73 6.137a8.023 8.023 0 0 0 7.865.212 6.879 6.879 0 0 0 2.754-2.789c1.789 1.1 4.167.507 5.746-.769a7.283 7.283 0 0 0 2.6-5.34A6.312 6.312 0 0 0 61.247 87a7.267 7.267 0 0 0 2.366-7.247c-.024-.092-.054-.183-.083-.274a7.929 7.929 0 0 0 2.888-3.464.42.42 0 0 0 .057-.137c.047-.113.1-.223.141-.339a13.568 13.568 0 0 0 .64-5.607 34.4 34.4 0 0 0-2.677-10.503zM66.125 74.5a8.454 8.454 0 0 1-.289.875 2.845 2.845 0 0 1-1.631-1.1l-.054-.071c-.023-.032-.047-.065-.069-.1a5.742 5.742 0 0 1-.412-.695 2.77 2.77 0 0 1-.1-.215l-.042-.092a4.719 4.719 0 0 0 2.882-.044 11.14 11.14 0 0 1-.285 1.442zm.364-2.321-.069.031a4.713 4.713 0 0 1-.827.249 3.813 3.813 0 0 1-2.527-.37.4.4 0 0 0-.575.442 5.478 5.478 0 0 0 2.058 3.135 3.062 3.062 0 0 0 .967.426 7.134 7.134 0 0 1-2.264 2.633 7.3 7.3 0 0 0-1.75-2.43 7.726 7.726 0 0 0-3.633-1.8 2.5 2.5 0 0 1-.864-.312c-.324-.221-.4-.614-.6-.929a17.785 17.785 0 0 0-1.574-1.618c-.895-1.081-1.4-2.759-.421-3.95a2.234 2.234 0 0 1 1.518-.847c.743-.048 1.3.536 2.013.616 1.534.17 2.069-1.821 2.206-2.974a15.686 15.686 0 0 1 .31-2.349 4.239 4.239 0 0 1 1.077-1.766c.592-.63 1.279-1.213 1.8-1.9a40.528 40.528 0 0 1 1.859 5.017 30.778 30.778 0 0 1 1.194 5.5 18.435 18.435 0 0 1 .102 3.194zm52.643-29.591a3.142 3.142 0 0 0-2.227-.345 8.269 8.269 0 0 0-3.188 1.093c.338-.526.663-1.061.97-1.6.54-.956 1.349-2.168.775-3.283-.56-1.087-1.965-.835-2.864-.4a12.169 12.169 0 0 0-2.832 2.2q-.4.38-.771.792c.1-.441.184-.885.241-1.335a8.459 8.459 0 0 0 .032-2 2.9 2.9 0 0 0-.476-1.511c-.773-.985-1.928.08-2.55.7a8.7 8.7 0 0 0-1.823 2.786 16.629 16.629 0 0 0-.895 2.949 9.505 9.505 0 0 0-1.01-1.8c-.567-.788-1.533-2.049-2.558-1.125-.9.808-.791 2.36-.8 3.451q-.012 2.04.152 4.076c.122 1.518.319 3.03.582 4.529.087.5.841.286.754-.208a46.985 46.985 0 0 1-.692-6.931q-.021-.861-.011-1.721a8.421 8.421 0 0 1 .123-1.724c.071-.319.25-1.023.685-1.017.391 0 .817.7 1.022.976a9.112 9.112 0 0 1 1.472 3.071.4.4 0 0 0 .755 0 14.456 14.456 0 0 1 2.127-5.986 6.6 6.6 0 0 1 .965-1.054c.2-.173.755-.737 1.022-.566.335.215.36.949.389 1.283a8.338 8.338 0 0 1-.034 1.7 20.578 20.578 0 0 1-.954 3.8c-.155.488.577.669.755.208a7.091 7.091 0 0 1 1.63-2.376 17.767 17.767 0 0 1 2.29-2 4.352 4.352 0 0 1 1.323-.685c.386-.11.931-.172 1.206.2a1.38 1.38 0 0 1-.04 1.35c-.217.487-.492.954-.756 1.416a32.978 32.978 0 0 1-2.055 3.155c-.283.386.3.729.615.474a9.378 9.378 0 0 1 4.047-2.037 5.454 5.454 0 0 1 1.075-.094 1.965 1.965 0 0 1 .98.165c.583.364-.516 1.419-.757 1.735a31.473 31.473 0 0 0-4.414 7.99 31.07 31.07 0 0 0-1.43 5.052c-.1.492.658.7.754.208a30.9 30.9 0 0 1 3.538-9.505q.614-1.066 1.31-2.082c.482-.7 1.024-1.359 1.527-2.047.424-.587.671-1.404.021-1.927zM22.953 165.014c-.442-.759-.9-1.511-1.392-2.239-.28-.416-.959-.025-.676.395a33.656 33.656 0 0 1 2.835 5 10.773 10.773 0 0 1 .609 1.659 2.651 2.651 0 0 1 .11 1.194.444.444 0 0 1-.165.3s.029-.015-.032.02a1.111 1.111 0 0 1-.15.076.969.969 0 0 1-.356.063 2.708 2.708 0 0 1-1.548-.7 11 11 0 0 1-2.212-2.412.4.4 0 0 0-.729.2 20.818 20.818 0 0 1-.941 4.905 5.78 5.78 0 0 1-.666 1.388 2.15 2.15 0 0 1-.34.387 1.182 1.182 0 0 1-.316.187.73.73 0 0 1-.067.017l-.022.006h-.008c-.027 0-.128-.006-.15 0h-.006l.012.009c-.021-.018-.053-.024-.075-.043l-.016-.015a1.09 1.09 0 0 1-.092-.1c.033.04-.069-.11-.089-.144a2.623 2.623 0 0 1-.119-.237 4.921 4.921 0 0 1-.2-.59 17.049 17.049 0 0 1-.523-2.993 32.354 32.354 0 0 1-.153-1.967.393.393 0 0 0-.768-.1c-.217.8-.479 1.582-.763 2.356a11.6 11.6 0 0 1-1.855 3.642 2.144 2.144 0 0 1-.527.468.558.558 0 0 1-.218.093.256.256 0 0 1-.076.016c-.062.011-.114 0-.065 0a.323.323 0 0 1-.228-.148 1.425 1.425 0 0 1-.232-.519 10.907 10.907 0 0 1-.184-3.614 36.056 36.056 0 0 1 .236-2.486v-.037l.006-.043.008-.061a.4.4 0 0 0-.226-.462.388.388 0 0 0-.489.161 21.159 21.159 0 0 1-1.3 2.5 8.68 8.68 0 0 1-1.211 1.637 2.114 2.114 0 0 1-.613.469 1.106 1.106 0 0 1-.207.064h-.11a.531.531 0 0 1-.089-.024.612.612 0 0 1-.154-.106 1.253 1.253 0 0 1-.238-.32 2.972 2.972 0 0 1-.318-.921 7.153 7.153 0 0 1 .047-2.4 25.257 25.257 0 0 1 1.6-5.367c.418-1.046.87-2.085 1.383-3.09.228-.447-.446-.844-.676-.395-.478.937-.9 1.905-1.3 2.876a26.535 26.535 0 0 0-1.738 5.631 8.836 8.836 0 0 0-.107 2.729 2.881 2.881 0 0 0 .96 1.947c1.179.846 2.408-.785 2.988-1.621.291-.421.559-.862.813-1.311-.008.1-.019.2-.025.3a12.874 12.874 0 0 0 .16 4.039 1.9 1.9 0 0 0 .74 1.206 1.306 1.306 0 0 0 1.4-.169 4.735 4.735 0 0 0 1.26-1.52 16.127 16.127 0 0 0 1.017-2.131c.162-.4.313-.806.459-1.214a16.538 16.538 0 0 0 .586 3.162c.219.723.6 1.7 1.515 1.612.956-.094 1.523-1.1 1.862-1.886a16.848 16.848 0 0 0 1.123-4.757 11.767 11.767 0 0 0 1.454 1.529c.853.739 2.5 1.783 3.516.691.715-.772.248-2.135-.062-2.979a24.312 24.312 0 0 0-1.877-3.813zm142.179-64.556a14.835 14.835 0 0 0-3.093-1.79c-1.886-.824-4.115-1.356-6.087-.5a5.838 5.838 0 0 0-2.824 2.9.4.4 0 0 0-.036.25.345.345 0 0 0 .339.337.334.334 0 0 0 .154 0l3.763-.153 6.156-.252 1.43-.058a.4.4 0 0 0 .198-.734zM141.716 88.3a.4.4 0 0 0-.2-.036.34.34 0 0 0-.393.339.327.327 0 0 0 .011.191l.279 3.717.462 6.145.108 1.427a.4.4 0 0 0 .729.2 15.252 15.252 0 0 0 1.692-3.17 7.741 7.741 0 0 0 .3-6.071 5.788 5.788 0 0 0-2.988-2.742zM99.171 54.388l-.845 4.167-.12.594c-.1.492.654.7.754.208l.845-4.167.121-.594c.099-.491-.655-.696-.755-.208zm5.149 1.873-.845 4.167-.12.593c-.1.492.654.7.754.208l.845-4.166.121-.594c.099-.492-.655-.702-.755-.208zm-88.234 97.128-.845 4.167-.12.593c-.1.492.654.7.754.208l.845-4.167.12-.593c.1-.497-.654-.697-.754-.208zm-4.681-1.171-.845 4.167-.12.594c-.1.492.654.7.754.208l.845-4.167.121-.594c.099-.491-.655-.701-.755-.208zm9.83 1.873-.845 4.167-.12.593c-.1.492.654.7.754.208l.845-4.167.12-.593c.1-.492-.654-.699-.754-.208zm88.702-94.554-.846 3.559-.119.5c-.117.489.638.7.754.208l.847-3.558.119-.5c.116-.49-.638-.699-.755-.209zM35.59 148.891v3.431a.391.391 0 0 0 .782 0v-3.431a.391.391 0 0 0-.782 0zm8.425-.468v3.431a.392.392 0 0 0 .783 0v-3.431a.392.392 0 0 0-.783 0zm11-.468v3.431a.392.392 0 0 0 .783 0v-3.431a.392.392 0 0 0-.783 0zm11-1.17v3.431a.392.392 0 0 0 .783 0v-3.431a.392.392 0 0 0-.783 0zm6.785-.468v3.431a.391.391 0 0 0 .782 0v-3.431a.391.391 0 0 0-.782 0zm5.064-36.565-.068-2.018c-.017-.5-.8-.5-.782 0l.187 5.558.3 8.848.068 2.018c.017.5.8.5.782 0l-.187-5.557-.3-8.849z"></path></svg>