<svg xmlns="http://www.w3.org/2000/svg" viewBox="0 0 200 200"><defs></defs><path d="M142.758 140.412a.388.388 0 0 1 .179-.268c.781-5.453 2-12.451 3.311-18.282a28.817 28.817 0 0 1-6.88 5.916c-7.775 5.2-16.635 8.844-25.347 12.14-4.816 1.821-9.685 3.542-14.618 5.026-.094 1.953-2.111 43.666-2.369 49.093 13.943-2.324 33.467-10.838 46.292-17.55-2.682-7.887-2.211-19.76-1.4-28.058-1.612 5.544-5.343 10.734-3.843 16.613a.437.437 0 0 1-.842.232c-1.78-6.964 3.5-12.8 4.379-19.439-3.09 5.316-8.559 9.259-10.965 15.054-.215.517-1.063.29-.842-.231 3.109-7.507 11.35-12.001 12.945-20.246zm-44.236 4.517c-14.531-4.78-29.629-12.027-40.629-22.551a40.037 40.037 0 0 1-5.242-5.8 159.883 159.883 0 0 0-.6 50.229c-.015.255-3.2-1.742 44.113 26.99.089-1.803 2.094-43.373 2.358-48.868z" fill="#ffd869"></path><path d="m168.559 27.73-12.786 2.411c4.169 17.993.574 29.542-4.137 36.628a13.112 13.112 0 0 1-16.235 4.7c-5.618-2.5-10.75-2.316-15.671.364-4.1-2.217-21.6-13.771-14.123-46.034l-12.781-2.411s-18.84 39.98 14.339 61.641a99.107 99.107 0 0 0-8.781 18.977c2.417.748 35.061 10.813 48.969 15.1a.464.464 0 0 1 .3.537c-.242 1-.465 2-.681 3a31.36 31.36 0 0 0 18.471-16.271A127.254 127.254 0 0 0 154.7 89.056c32.515-21.735 13.859-61.326 13.859-61.326z" fill="#77d8a2"></path><path d="M144.392 83.1a.445.445 0 0 0-.421-.321c-14.94 0-9.786.01-10.9.01a.359.359 0 0 0-.373.311 33.227 33.227 0 0 0-.475 3.537.477.477 0 0 0-.036.595c-.147 2.832.2 5.8 1.842 7.822 1.685 2.069 4.743 2.069 6.949.848 3.93-2.165 4.276-8.465 3.414-12.802zm-10.907.553h10.123a21.114 21.114 0 0 1 .321 2.879c-.122-.025-10.856-.016-10.754-.016a23.639 23.639 0 0 1 .31-2.86zm8.265 10.557c-1.726 1.785-5.2 2.442-6.975.384-1.579-1.83-1.687-4.77-1.632-7.2 11.54 0 10.7.012 10.8-.021-.003 2.541-.55 5.137-2.193 6.837zm6.801-63.184c-4.466-3.525-10.759-2.158-12.345 2.806-9.076-1.353-17 4.394-18.045 11.959-5.111 6.706-3.318 16.673 4.269 20.414-.615 3.354-1.052 7.128-.078 10.26 1.369 4.4 6.132 2.179 8.085-.453 2.132-2.869 2.891-6.538 3.08-10.054a14.065 14.065 0 0 0 5.527-5.464c7.364-2.441 11.785-9.619 9.533-16.75 4.604-2.669 4.451-9.184-.026-12.718zM129.4 75.928c-1.157 1.385-3.753 3.285-5.485 1.637-1.716-1.626-1.19-5.532-1.016-7.617.089-1.121.226-2.242.4-3.353a11.944 11.944 0 0 0 9.322-.19c-.247 3.364-1.04 6.908-3.221 9.523zm10.349-17.813a.443.443 0 0 0-.642.263 12.567 12.567 0 0 1-10.765 8.18 11.591 11.591 0 0 1-11.018-6.748c-4.143-8.823 3.5-20.335 13.534-18.056a12.092 12.092 0 0 1 9.1 11.47.444.444 0 0 0 .553.421l1.269-.047c3.333 1.137 1.143 6.411-2.036 4.517z" fill="#000001"></path><path d="M132.922 53.377a.619.619 0 1 0-.847-.221.619.619 0 0 0 .847.221zm.711-3.711c-.58-.038-.58.868-.006.9a1.631 1.631 0 0 1 1.406.989c.226.537 1.105.306.879-.231a2.621 2.621 0 0 0-2.279-1.658zm-11.724.505a.617.617 0 1 0 .827-.279.622.622 0 0 0-.827.279zm.153-2.185a1.639 1.639 0 0 1 1.722.053c.484.321 1.089-.353.6-.674a2.611 2.611 0 0 0-2.821-.137c-.501.285-.001 1.048.499.758zM133.9 55.84c-.907-.3-1.741.572-5.254.432-2.792-.1-6.109-1.138-7.769-3.037-.374-.427-.99.194-.621.621 2.306 2.644 6.728 3.528 10.291 3.258a14.7 14.7 0 0 1 2.484-.342c.832.105.59.479.295.969-1.846 3.052-5.161 3.773-8.659 3.332-.558-.069-.553.8 0 .874 2.811.358 5.732 0 7.917-1.953.727-.653 3.302-3.494 1.316-4.154zm-28.3-41.996c-.337.164-1.206 1.068-1.422 1.016-.663-.163 0-2.606.058-3.09.179-1.443.816-5.248-1.132-5.859-2.542-.8-1.963 3.511-2.747 5.022-.537-1.711.063-6.965-2.538-5.754-1.62.753-1 4.574-1.153 6.049-.31-1.39-.868-3.454-2.379-2.906-1.726.632-.921 3.99-.768 5.269.368 3.164.352 6.517 3.068 8.7 3.636 2.915 9.037.345 10.813-4.022a5.52 5.52 0 0 0 .395-3.848c-.404-.967-1.334-.996-2.195-.577zM106.9 17c-1.124 4.433-6.606 7.5-10.018 4.385-2.016-1.837-2.179-4.469-2.405-7.006a24.952 24.952 0 0 1-.321-4.006c.122-1.595.866-1.552 1.363-.032.216.637.316 1.305.484 1.953.121.471 1.181.465 1.332 0 .452-1.375-.327-5.155.653-6.127 1.147-1.132 1.131 2.542 1.147 3.037a3.735 3.735 0 0 0 .832 2.779.447.447 0 0 0 .532.069 3.045 3.045 0 0 0 1.079-2.058c.131-.722 0-2.864.81-3.211 1.706-.732.927 5.158.8 5.969-.215 1.311.09 4.09 1.843 2.616.516-.437 1.579-1.474 2.026-.384A3.772 3.772 0 0 1 106.9 17zm60.859-4.346c-1.51-.547-2.069 1.511-2.379 2.9-.143-1.444.478-5.279-1.153-6.043-2.6-1.211-2 4.048-2.537 5.759-.79-1.511-.206-5.828-2.748-5.028-1.948.611-1.311 4.422-1.132 5.859.063.485.721 2.932.058 3.09-.195.048-1.1-.858-1.421-1.016-.858-.421-1.785-.389-2.195.574a5.458 5.458 0 0 0 .395 3.848c1.774 4.364 7.194 6.939 10.812 4.022 2.716-2.19 2.7-5.527 3.069-8.7.152-1.269.958-4.639-.769-5.265zm-.189 6.07c-.229 2.526-.395 5.185-2.406 7.006-3.381 3.057-8.724.143-9.965-4.174a4.3 4.3 0 0 1-.231-2.011c.305-1.221 1.405-.384 2.042.174 1.737 1.5 2.053-1.332 1.842-2.617-.131-.789-.889-6.722.795-5.969 1.231.553.044 3.864 1.89 5.269a.448.448 0 0 0 .532-.068 3.563 3.563 0 0 0 .826-2.627c.027-.516.006-4.332 1.158-3.195 1.191 1.181-.215 6.483 1.074 6.448.163-.005.327-.005.49 0 .574.016.434-.784.863-2.132.095-.3.19-.868.453-1.058.91-.658.926.469.958.948a25.068 25.068 0 0 1-.321 4.006zm2.7 110.334c-3.658-3.454-7.433.127-8.528 1.342a10.353 10.353 0 0 0-1.495-1.548A41.47 41.47 0 0 0 162.2 111.7a2.085 2.085 0 0 0-.747 1.548c.5 8.27-1.588 17.252-6.39 23.914-.332.458.431.9.757.443a32.894 32.894 0 0 0 4.127-7.865c4.217 3.743 5.4 10.591 5.133 15.84-.227 4.479-1.269 9.2-5.153 11.923-5.627 3.944-14.892 2.158-17.672-1.748 1.252-20.7 5.582-35.876 5.377-36.38-.1-.316 3.234.815-50.443-15.739a3.73 3.73 0 0 0-2.526-.227C87.415 105.4 59.194 113.123 52.334 115a.4.4 0 0 0-.346.379 163.258 163.258 0 0 0-.959 50.446c.142 1 .064 1.616.927 2.147 10.812 6.644 40.444 24.568 44.392 26.968a.385.385 0 0 0 .336.042c14.193-2.23 35.429-11.614 47.4-17.9 1.105-.589-2.712-3.555-1.9-20.061 3.833 3.993 14.558 5.637 20.078-.452l2.231.952c6.982-1.685 10.12-24.363 5.777-28.463zm-76.812-24.414c.694-.19 1.394-.438 2.105-.575.071-.023 40.041 12.333 40.112 12.355a.4.4 0 0 0-.379.416 67.357 67.357 0 0 0 .732 9.654c.084.558.926.322.842-.231a64.868 64.868 0 0 1-.7-9.423.4.4 0 0 0-.125-.3q5.266 1.626 10.538 3.248a21.2 21.2 0 0 1-6.443 6.4l-.2-7.854a.437.437 0 0 0-.873 0l.2 7.9a.4.4 0 0 0 .258.379c-.042.032-.09.063-.132.095-10.38 7.109-29.162 14.07-40.412 17.455-15.621-5.109-34.09-14.109-44.5-26.7-.473-.574-.947-1.158-1.368-1.774l40.345-11.045zm2.7 89.157c-13.352-8.114-43.98-26.741-44.081-26.774a.652.652 0 0 1-.032-.216 161.943 161.943 0 0 1 .6-50.229 40.705 40.705 0 0 0 5.242 5.8c10.985 10.51 26.069 17.762 40.629 22.551a54613.59 54613.59 0 0 1-2.353 48.867zm47.163-17.314c-12.754 6.671-32.322 15.221-46.292 17.55.264-5.427 2.274-47.14 2.369-49.093 4.933-1.484 9.807-3.2 14.618-5.026 8.713-3.3 17.572-6.944 25.347-12.14a28.82 28.82 0 0 0 6.88-5.916c-1.31 5.827-2.484 12.6-3.311 18.282a.368.368 0 0 0-.179.268c-1.543 8.254-9.842 12.739-12.958 20.246-.216.521.632.748.842.231 2.406-5.8 7.876-9.738 10.965-15.054-.884 6.637-6.158 12.475-4.379 19.439a.437.437 0 0 0 .842-.231c-1.5-5.88 2.232-11.071 3.843-16.614-.808 8.331-1.275 20.171 1.418 28.058z" fill="#000001"></path><path d="M129.553 126.531v-8.649a.437.437 0 0 0-.874 0v8.649a.437.437 0 0 0 .874 0zM55.2 98.769a6.871 6.871 0 0 0-2.127 6.395c.1.553.948.322.842-.231a5.971 5.971 0 0 1 1.9-5.543c.426-.379-.196-1-.615-.621zm-2.692-3.343a9.67 9.67 0 0 0-4.637 10.87.437.437 0 0 0 .842-.232 8.771 8.771 0 0 1 4.238-9.88c.494-.274.049-1.031-.443-.758zm13.682.984a.439.439 0 0 0-.442.758 4.535 4.535 0 0 1 2.263 3.643c.037.558.911.563.874 0a5.414 5.414 0 0 0-2.695-4.401zm-.137-6.448c-.522-.22-.748.626-.232.842a9.36 9.36 0 0 1 5.648 7.554c.064.553.943.558.874 0a10.286 10.286 0 0 0-6.29-8.396z" fill="#000001"></path><path d="M70.406 57.472c-.068.132.432 1.027.5 1.179a3.909 3.909 0 0 0 .879 1.453c.679.542 2.169.448 3.032.569a25.458 25.458 0 0 0-2.158 2.132 9.828 9.828 0 0 0 .474 3.053l-1.033-.542c-.4-.211-1.153-.822-1.59-.837a.875.875 0 0 0-.363.089c-.321.142-2.421 1.006-2.469 1.29l.206-1.2c.073-.421.452-1.506.242-1.885-.044-.075-.358-.363-2.137-2.1.226.221 2.537-.369 2.863-.416.586-.079 1.286-2.243 1.554-2.785zM47.924 79.955c-.069.131.431 1.026.5 1.179a3.9 3.9 0 0 0 .879 1.453c.679.542 2.168.447 3.032.568a25.785 25.785 0 0 0-2.158 2.132 9.794 9.794 0 0 0 .473 3.053c-.342-.178-.689-.363-1.031-.542-.4-.21-1.153-.821-1.59-.837a.868.868 0 0 0-.363.09c-.322.142-2.422 1-2.469 1.289l.2-1.2c.074-.421.453-1.5.242-1.884-.043-.075-.357-.363-2.137-2.1.226.221 2.537-.368 2.864-.415.589-.08 1.289-2.241 1.558-2.786z" fill="#ffd869"></path><path d="M74.818 60.236c-.984-.114-1.99.026-2.764-.653a4.682 4.682 0 0 1-1.211-2.116c-.029-.46-.778-.642-.863-.1-.327.794-.579 2.053-1.3 2.484a5.676 5.676 0 0 1-2.474.448c-.427-.179-.916.31-.532.689.716.7 2.122 1.532 2.006 2.6-.074.71-.311 1.453-.432 2.158a.44.44 0 0 0 .8.337 4.609 4.609 0 0 1 1.906-.963c1.021-.274 2.048.647 2.948 1.115a.441.441 0 0 0 .531-.689 6.389 6.389 0 0 1-.331-2c-.085-1.08 1.289-1.859 2.016-2.569a.436.436 0 0 0-.3-.741zm-2.585 3.316c.032.384.053.863.121 1.327a2.86 2.86 0 0 0-2.548-.637c-.395.147-.932.326-1.421.563.481-1.836.4-2.337-1.19-3.669a7.632 7.632 0 0 0 1.722-.442 3.019 3.019 0 0 0 1.447-1.937c.827 1.8 1.512 2.179 3.374 2.279-.816.7-1.599 1.384-1.505 2.516zM52.335 82.724c-.985-.107-1.99.026-2.764-.653a4.686 4.686 0 0 1-1.21-2.116c-.029-.46-.779-.642-.864-.106-.326.8-.579 2.053-1.3 2.485a5.691 5.691 0 0 1-2.474.448c-.426-.179-.916.31-.531.689.715.7 2.121 1.532 2 2.6-.074.71-.31 1.452-.432 2.158a.44.44 0 0 0 .8.337 4.6 4.6 0 0 1 1.905-.964c1.021-.273 2.048.648 2.948 1.116a.441.441 0 0 0 .532-.689 6.361 6.361 0 0 1-.332-2c-.084-1.079 1.29-1.858 2.016-2.568a.435.435 0 0 0-.294-.737zm-2.585 3.311c.032.384.053.863.121 1.326a2.862 2.862 0 0 0-2.547-.637c-.395.148-.932.327-1.422.564.482-1.836.4-2.337-1.189-3.669a7.618 7.618 0 0 0 1.721-.443 3.019 3.019 0 0 0 1.448-1.937c.827 1.8 1.512 2.18 3.374 2.28-.816.7-1.6 1.381-1.506 2.516z" fill="#000001"></path><path d="M53.8 65.942c-.768.421-2.226.879-2.647 1.663-.39.722-.785 1.448-1.18 2.169L48.624 67.3l-2.475-1.353c2.316-1.272 2.4-1.242 2.7-1.758a9.875 9.875 0 0 1 1.142-2.011 12.343 12.343 0 0 1 1.348 2.411zm-14.3 66.28c-.769.421-2.227.879-2.648 1.663-.389.721-.784 1.448-1.179 2.169l-1.353-2.474-2.474-1.353c2.315-1.273 2.4-1.242 2.7-1.758a9.916 9.916 0 0 1 1.142-2.011 12.343 12.343 0 0 1 1.348 2.411zm82.336-8.176c-.769.421-2.227.879-2.648 1.664-.39.721-.785 1.447-1.18 2.169l-1.352-2.475-2.474-1.352c2.3-1.266 2.4-1.237 2.695-1.759a9.935 9.935 0 0 1 1.142-2.01 12.343 12.343 0 0 1 1.348 2.411z" fill="#ffd869"></path><path d="M147.9 178.477c2.385-.117 4.77-.243 7.154-.364.563-.026.563-.905 0-.874l-7.154.364c-.555.026-.56.897 0 .874zm2.672-7.612c1.1-.147 2.2-.29 3.3-.437.552-.074.558-.948 0-.874-1.1.147-2.2.29-3.3.437-.547.068-.558.948 0 .874zm5.38-6.175h11.333a.437.437 0 0 0 0-.874h-11.333a.437.437 0 0 0 0 .874zm9.548 4.769h3.581a.437.437 0 0 0 0-.873H165.5a.437.437 0 0 0 0 .873zM57.7 183.856a20.824 20.824 0 0 0 7 .479c.558-.058.563-.931 0-.874a20.024 20.024 0 0 1-6.764-.447c-.548-.136-.779.711-.236.842zm2.531-3.956h2.979a.437.437 0 0 0 0-.874h-2.979a.437.437 0 0 0 0 .874zm-22.362-5.935a67.321 67.321 0 0 1 10.139.269c.558.058.558-.822 0-.874a66.524 66.524 0 0 0-10.139-.269c-.563.021-.563.901 0 .874zm5.791-5.065a10.833 10.833 0 0 1 3.448-.326c.563.036.563-.843 0-.874a11.589 11.589 0 0 0-3.685.358.438.438 0 0 0 .237.842zm1.958-3.315H48a.437.437 0 0 0 0-.874h-2.382a.437.437 0 0 0 0 .874zm-19.082 2.685H32.8a.437.437 0 0 0 0-.874h-6.264a.437.437 0 0 0 0 .874z" fill="#000001"></path><path d="M117.051 107.712c-2.13-2.766-6.564-2.35-9.849-.99a14.391 14.391 0 0 0-5.922 4.58 7.628 7.628 0 0 1 2.5-8.612.506.506 0 0 0-.253-.911 7.519 7.519 0 0 1-6.848-8.664 22.406 22.406 0 0 0 7.549 2.016 8.982 8.982 0 0 0 7.122-2.658c1.694-1.916 2.216-4.749 2.137-7.294a13.525 13.525 0 0 1-7.3-4.2 42.434 42.434 0 0 1-9.107 4.777c-.6.226-1.537.263-1.632-.374L92.005 76.7c-.29-.441-.638-.915-1.316-.762a1.457 1.457 0 0 0-1.016.879 33.316 33.316 0 0 0-2.338 9.175 16.114 16.114 0 0 0-4.842-9.876c-.627-.6-1.487-.533-1.964.943a28.163 28.163 0 0 0-1.311 10.706 9.7 9.7 0 0 1-.042 3 10.808 10.808 0 0 1-1.858 3.335c-2.606 3.885-3.637 8.649-3.8 13.329-.37 10.363 2.467 16.132.3 19.741a3.564 3.564 0 0 1-2.363 1.72c-1.953.359-3.354-1.205-4.327-2.731a24.781 24.781 0 0 1-1.87-22.559c-3.734 2.662-5.2 7.508-5.764 12.06a23.953 23.953 0 0 0 .011 7.048c10.825 9.92 25.52 16.89 39.474 21.456.643-.195 1.28-.4 1.922-.6 5.536-8.053 1.554-20.576 4.506-26.594 2.462-5.017 10.153-5.61 11.386-6.364a1.948 1.948 0 0 0 .258-2.894z" fill="#ff8684"></path><path d="M96.605 94.773a7.454 7.454 0 0 0 5.591 6.775c.979-2.576-1.722-6.021-5.591-6.775zm-5.953 25.947a3.94 3.94 0 0 0-.99-2.89 6.611 6.611 0 0 0-2.59-1.6 5.379 5.379 0 0 0-5.954 3 4.522 4.522 0 0 0-.51 2.758c.279 1.011 1.4 1.648 2.179 2.29 1.658 1.358 1 2.253.663 3.99a3.259 3.259 0 0 0 2.68 3.748c2.411.553 5.343-.337 5.827-3 .411-2.242-1.5-2.885-2.227-4.643-.61-1.443.758-2.273.922-3.653zm5.264-30.22a2.568 2.568 0 0 0-.343-2.69c-.3-.337-.852-.411-1.152-.79a5.966 5.966 0 0 1-.574-1.474 2.315 2.315 0 0 0-2.806-1.4c-1.521.379-1.49 1.658-2.274 2.648-.489.616-1.39.769-2.053 1.163a5.551 5.551 0 0 0-2.284 6.112 4.892 4.892 0 0 0 4.832 2.885 1.814 1.814 0 0 0 1.7-1.853 2.725 2.725 0 0 1 1.864-2.774c1.068-.427 2.51-.712 3.09-1.827zm1.068 35.589a3.1 3.1 0 1 1-2.626 3.063 2.871 2.871 0 0 1 2.626-3.063z" fill="#ff8684"></path><path d="M113.482 85.179a11.37 11.37 0 0 0-2.79-7.782 42.175 42.175 0 0 1-4.506 3.577 13.539 13.539 0 0 0 7.296 4.205zm3.605 24.607c-.768-1.316-1.926-2.574-3.595-2.211-.553.121-.316.964.232.842 1.2-.263 2.011.79 2.553 1.711-1.827.779-3.848 1.074-5.691 1.811-5.741 2.285-5.162 5.366-7.654 7.417-1.805 1.49-4.969 2.985-6.726.558-.327-.453-1.091-.016-.758.442 2.52 3.48 7.542.964 9.522-1.837.679-.957 1.021-2.079 1.79-2.985 2.9-3.445 7.3-3.242 10.617-4.947.443-.227.137-.854-.29-.801zm-34.911-3.459c-.031-.558-.905-.562-.873 0a8.082 8.082 0 0 0 1.026 3.554c.274.5 1.032.053.758-.442a7.062 7.062 0 0 1-.911-3.112zm1.924.938c-.165-.537-1.011-.311-.842.231a10.093 10.093 0 0 0 1.284 2.7c.316.463 1.074.026.758-.443a9.227 9.227 0 0 1-1.2-2.488z" fill="#000001"></path><circle cx="93.626" cy="89.151" r=".732" fill="#000001"></circle><path d="M91.615 85.372a4.056 4.056 0 0 0-2.348 5.211c.163.537 1.011.311.842-.232a3.226 3.226 0 0 1 1.738-4.132c.521-.2.295-1.046-.232-.847z" fill="#000001"></path></svg>