<svg xmlns="http://www.w3.org/2000/svg" viewBox="0 0 200 200"><g><path d="M34.886,153.88c-2.005-1.77-4.882-8.892-6.394-11.2-1.583-2.416-3.838-.731-6.3-.227s-4.832-.971-2.826-1.435,5.69-2.949,4.058-2.58-5.663.5-8.245-1.909,2.348-2.844,5.325-3.82,3.012-3.674,7.753-4.568,6.77,3.938,8.785,6.8,8.639,4.984,12.416,4.614c4.81-.47.182.026,10.23-2.224,5.312-1.189,8.114-.351,9.98,1.475l-.237-.317a19.994,19.994,0,0,0,16.7,1.508c9.657-3.237,11.887-7.455,12.656-4.905a5.275,5.275,0,0,1-4.223,6.441c-3.129.376,3.946-.136,1.978,1.773s-4.916.512-5.7,1.63,4.038-1.161,4.2,1-5.085,1.624-6.249,1.2,1.355.345.786,1.49c-.6,1.212-15.8-4.358-18.208-7.556.751,1.285,1.393,2.749,2.169,4.231a5.528,5.528,0,0,1,.139,4.883c.111.375.732,2.253,2.129,2.739,1.553.54,2.228-1.271,2.855.158s-.56,4.046-2.113,6.213-.6,1.747-1.475,3.252-4.338,1.415-5.5.715.4-2.053,1.55-2.508,2.495-3.85,2.495-3.85c-2.1.54-4.647-.954-4.647-.954l.254-.314c-1.724,1.477-3.366,2.426-2.993,5.918.18,1.682-.036,1.967-1.828,3.145s-2.612,5.362-4.423,5.439c-5.4.231-5.256-1.043-5.256-1.043.152-1.607,2.657-2.332,4.346-2.98s3.547-5.523,1.463-8.349a7.7,7.7,0,0,1-1.209-6.085c-1.42,4.634-8.137,6.8-8.137,6.8-.095,1.688-1.683,6.574-1.7,8.594s-.582,3.649-2.159,4.605a4.54,4.54,0,0,1-3.5.274c-1.382-.209-1.431-1.034-1.431-1.034-.555-.98.675-1.854,2.356-2.189s1.706-1.659,1.409-4.322c-.283-2.539-2.354-4.475-5.974-5.953-1.763,2.2-6.409,6.878-10.236,8.365s-5.766.132-5.655-1.486,2.687-1.565,4.806-2.065C31.15,162.791,34.672,154.393,34.886,153.88Z" fill="#f5a757" fill-rule="evenodd"></path><path d="M96.937,145a.5.5,0,0,1-.148-.977c.437-.135,10.758-3.286,18.2-2.657,10.48.894,30.658-.4,48.1-19,17.163-18.3,27.935-16.538,31.991-15.869a.5.5,0,0,1-.162.987c-3.912-.641-14.3-2.349-31.1,15.565-17.734,18.912-38.26,20.215-48.918,19.313C107.363,141.729,97.232,145,96.937,145Z" fill="#000000"></path><path d="M135.362,83.41c-.439-2.273-2.077-4.033-4.511-5.455,0,0-2.142,2.477-3.3,4.129a13.1,13.1,0,0,0-4.674,3.789c-2.214,2.775-8.318,10.588-11.547,12.119s-4.231,1.148-5.551,2.9-1.078,2.345-1.913,2.678-1.774.954-.88,1.336a3.229,3.229,0,0,0,2.216-.282s-1.137,2.644-.085,2.769a1.052,1.052,0,0,0,1.106-.494s.649.923,1.757.017c0,0,.593.885,1.932-.312,0,0,.688.962,2.5-.947s2.319-2.7,2.684-3.913a5.653,5.653,0,0,1,2.847-3.328c1.621-.887,7.046-4.818,10.06-7.063a48.838,48.838,0,0,0,4.389-3.243c.707-.59.811-1.339,1.221-2.044A28.847,28.847,0,0,1,135.362,83.41Z" fill="#fce0d1" fill-rule="evenodd"></path><path d="M162.557,80.323c-6.183-.792-7.019,3.979-7.019,3.979s2.447,3.15,2.546,4.074-.511,3.845.344,6.055a14.343,14.343,0,0,1,1.043,5.173c.01,1.209.237,2.306.2,3.382-.034.951.532,2.468-.244,3.472a6.358,6.358,0,0,0-.75,4.726c.435,1.332.249,2.61.967,3.337s1.543,1.828,1.736,1.278-.811-1.812-.871-2.5-.422-2.41-.422-2.41a14.694,14.694,0,0,1,1.221,2.376c.138.615.692.594,1.4.882s2.13,1.736,2.449,1.509-.334-1.939-.776-2.242c0,0,3.277,1.194,3.381.56s-1.46-1.314-1.46-1.314,2.308-.179,2.42-1.059-.173-1.361-1.02-.815-1.5.586-1.889-.06-.944-3.527-1.487-4.663a3.473,3.473,0,0,1-.065-2.832c.262-1.106,1.677-9.867,1.2-11.88a9.417,9.417,0,0,1-.018-3.819C165.475,86.586,164.184,80.531,162.557,80.323Z" fill="#fce0d1" fill-rule="evenodd"></path><path d="M124.771,136.953a45.436,45.436,0,0,0-2.038,9.33c-.25,3.986-1.031,8.143-1.77,9.428a11.824,11.824,0,0,0-1.763,1.45c2.309,1.907,4.759,3.208,7.513,3.207a8.791,8.791,0,0,1,.389-4.044,28.015,28.015,0,0,1,3.921-8.059c2.25-3.031,2.639-7.72,2.73-8.909a6.748,6.748,0,0,0-5.53-2.816C124.972,136.5,124.771,136.953,124.771,136.953Z" fill="#fce0d1" fill-rule="evenodd"></path><path d="M162.893,132.591s2.367.671,3.335,7.223.6,5.4,1.867,6.871c0,0-.09,4.3-1.542,5.665s-4.109.465-4.119-1.22a9.849,9.849,0,0,0-.947-5.059,59.555,59.555,0,0,0-4.347-5.928C156.878,139.982,163.025,132.539,162.893,132.591Z" fill="#fce0d1" fill-rule="evenodd"></path><path d="M137.087,92s-8.5,12.058-8.756,21.755-.786,9.821-1.181,12.114-1.005,1.563-1.426,5.833-.954,5.207-.954,5.207,7.414-.025,8.927,2.7c.936-7.337-.239-9.4,2.046-14.06a103.891,103.891,0,0,1,6.052-9.1s2.974,13.611,7.533,17.261,5.459,3.5,7.6,6.278c0,0,7.19,1.471,5.938-7.464a14.622,14.622,0,0,1-5.3-5.137c-1.992-3.426-5.218-13.1-4.3-17.092.933-4.053,3.323-5.726,2.382-10.277a18.662,18.662,0,0,0-3.924-7.854Z" fill="#7ed6ed" fill-rule="evenodd"></path><path d="M135.962,125.1a.5.5,0,0,0-.669.229c-2.169,4.429-1.261,5.868-1.97,13.094-2.412-1.971-7.84-2.009-8.555-2.014a.492.492,0,0,0-.479.41,44.933,44.933,0,0,0-2.055,9.432c-.236,3.766-.967,7.784-1.65,9.111a13.964,13.964,0,0,0-1.728,1.435.5.5,0,0,0,.344.863.493.493,0,0,0,.343-.136c1.5-1.417,1.7-1.3,1.852-1.563.789-1.369,1.578-5.516,1.837-9.647a43.62,43.62,0,0,1,1.916-8.9c2.181.043,6.918.52,8.061,2.367a16.729,16.729,0,0,1-2.587,8.186,28.226,28.226,0,0,0-3.99,8.192,7.332,7.332,0,0,0-.276,4.088.5.5,0,1,0,.963-.267,6.381,6.381,0,0,1,.255-3.487,27.276,27.276,0,0,1,3.851-7.93c1.548-2.085,2.526-5.255,2.828-9.168a.481.481,0,0,0-.014-.114c.833-7.464-.172-9.172,1.953-13.511A.5.5,0,0,0,135.962,125.1Z" fill="#000000"></path><path d="M157.61,163.364a4.292,4.292,0,0,1-1.159-.794c-.79-1.326.138-2.408,1.579-3.075s1.218-1.083,1.615-2.172,1.311-6.553,2.493-7.5a2.955,2.955,0,0,1,3.444.165c.5.476.1,2.62.893,2.029s1.7-5.243,1.623-5.281c0,0,2.389.5,2.841,4.095,0,0-2.909,1.51-2.926,3.2s.4,4.944-.987,5.778-1.954.342-2.521,1.479-.413,1.727-1.611,1.552-1.708-.23-2.361.5c-.365.41-1.293.426-2.227.227A6.132,6.132,0,0,0,157.61,163.364Z" fill="#ffa698" fill-rule="evenodd"></path><path d="M171.4,150.535c-.473-3.086-2.3-3.991-2.962-4.22-1.111-1.276-.774-.226-1.712-6.574-.868-5.885-2.859-7.262-3.508-7.56a.494.494,0,0,0-.843.416c.39,2.782-.02,4.767-1.22,5.9a5.024,5.024,0,0,1-3.949,1.035c-2.119-2.7-3.073-2.614-7.561-6.2a.5.5,0,1,0-.625.781c4.607,3.686,5.426,3.479,7.517,6.192a.485.485,0,0,0,.2.147,58.792,58.792,0,0,1,4.32,5.879,7.071,7.071,0,0,1,.93,3.01c-.1.07-.277.1-.655.714-.015.017-.022.043-.035.061-1.028,1.753-1.789,6.141-2.119,7.044-.416,1.14-.145,1.33-1.356,1.889-1.717.794-2.748,2.182-1.8,3.785a3.18,3.18,0,0,0,2.1,1.333c2.8.992,3.447.86,3.66.818.918-.18.873-.192,1.145-.061a2.027,2.027,0,0,0,2.256-.478,2.468,2.468,0,0,0,.516-.759c.136-.281.193-.4.528-.512.881-.3,1.865.013,2.464-2,.521-1.757-.3-3.342.394-4.065.84-.872,2.954-1.4,3.32-3.58A2.905,2.905,0,0,0,171.4,150.535Zm-9.48-4.72c-.593-1-2.6-3.8-3.749-5.236a5.44,5.44,0,0,0,3.664-1.351c1.26-1.183,1.812-3.055,1.652-5.566.692.77,1.7,2.489,2.25,6.225.932,6.3.636,5.617,1.856,6.984a21.5,21.5,0,0,1-1.184,4.375,2.7,2.7,0,0,0-.478-1.622,3.628,3.628,0,0,0-2.984-.722A8,8,0,0,0,161.916,145.815Zm.571,7.439a8.156,8.156,0,0,1,2.149.215c-.147.242-.286.486-.414.728a9.272,9.272,0,0,0-1.709-.189c0-.112.015-.211.014-.333C162.525,153.532,162.5,153.4,162.487,153.254Zm2.3,2.106c.258.074.522.156.8.262a.494.494,0,0,0,.1.019,1.93,1.93,0,0,1-.971.7C164.376,156.319,164.649,155.667,164.783,155.36Zm-2.432-3.1a14.088,14.088,0,0,1-.282-1.513,1.7,1.7,0,0,1,.382-.533,2.492,2.492,0,0,1,2.779.13c.153.2.141,1.234.331,1.741q-.169.237-.345.492A8.981,8.981,0,0,0,162.351,152.257Zm-1.166,1.01a.489.489,0,0,0,.311.1,2.3,2.3,0,0,1,.012.7,5.032,5.032,0,0,0-.524.1c-.014,0-.025.015-.039.021C161.021,153.881,161.1,153.573,161.185,153.267Zm.124,1.845a1.115,1.115,0,0,1-.415.562,3.006,3.006,0,0,1-.074-.645A.516.516,0,0,0,161.309,155.112Zm-2.917,8.082c-.5-.18-.863-.32-.957-.357a1.583,1.583,0,0,1-.554-.522c-.63-1.064.245-1.851,1.359-2.365,1.661-.77,1.485-1.386,1.875-2.456.072-.2.156-.513.251-.9a.767.767,0,0,0,.429.137c.54,0,1.314-.518,1.6-1.72a8,8,0,0,1,1.4.12,1.9,1.9,0,0,0-.065,1.666,1.157,1.157,0,0,0,.973.542h.021c1.278-.022,2.382-1.944,2.8-2.517.038,1.2.215,3.969-.757,4.554-1.283.774-2.029.321-2.711,1.683-.628,1.261-.34,1.394-1.09,1.281-1.182-.173-1.962-.286-2.807.666A2.316,2.316,0,0,1,158.392,163.194Zm9.337-2.312c-.416,1.4-.846,1.007-1.828,1.338-1.085.372-.977,1.073-1.416,1.5a1.043,1.043,0,0,1-1.124.3c-.633-.306-.878-.222-1.78-.021a2.462,2.462,0,0,1-.922-.109,1.374,1.374,0,0,0,.251-.217c.471-.53.738-.513,1.916-.341,1.621.231,1.61-.781,2.129-1.824.242-.482.4-.529.885-.666a3.673,3.673,0,0,0,2.032-1.156A3.937,3.937,0,0,1,167.729,160.882Zm-.005-7.748a8.015,8.015,0,0,0-1.506,1.823c-.107-.247-.268-.279-.98-.5.125-.224.263-.456.413-.7.1.034.191.057.293.1a.5.5,0,1,0,.357-.934c-.029-.011-.055-.016-.084-.027.073-.106.149-.21.225-.316a.975.975,0,0,0,.332-.165c.773-.576,1.477-3.556,1.729-4.979a4.147,4.147,0,0,1,1.882,3.131A6.667,6.667,0,0,0,167.724,153.134Zm3.691.222c-.263,1.568-1.832,1.965-2.854,2.863,0-.734-.051-1.648-.046-2.188.01-1.006,1.567-2.125,2.392-2.611A2.03,2.03,0,0,1,171.415,153.356Z" fill="#000000"></path><path d="M137.215,89.612a6.619,6.619,0,0,0-.046,2.426s3.8,2.484,14.561.066l.548-1.757C147.982,87.645,142.81,87.909,137.215,89.612Z" fill="#fce0d1" fill-rule="evenodd"></path><path d="M155.277,65.445c-7.922-6.889-13.524-3.056-15.669-1.662s-4.481,4.879-6.314,8.04a21.03,21.03,0,0,1-3.763,4.863s3.522,4.325,5.116,4.85c0,0,1.165,1.848.631,3.254s-1.615,3.821-1.615,3.821a17.43,17.43,0,0,0,9.21.982c5.512-.777,4.839-.049,7.825.685a10.259,10.259,0,0,0,5.874-.53,8.958,8.958,0,0,1-1.181-5.476,21.509,21.509,0,0,0,4.854-2.676,16.874,16.874,0,0,1,7.177-2.591s-4.476-2.583-6.316-5.8A30.878,30.878,0,0,0,155.277,65.445Z" fill="#fad353" fill-rule="evenodd"></path><path d="M155.33,86.427a1.226,1.226,0,1,1-1.226-1.244A1.235,1.235,0,0,1,155.33,86.427Z" fill="#ffffff"></path><path d="M152.228,65.244A1.227,1.227,0,1,1,151,64,1.235,1.235,0,0,1,152.228,65.244Z" fill="#ffffff"></path><path d="M149.775,71.465a1.226,1.226,0,1,1-1.226-1.245A1.235,1.235,0,0,1,149.775,71.465Z" fill="#ffffff"></path><path d="M158.357,73.953a1.226,1.226,0,1,1-1.225-1.244A1.235,1.235,0,0,1,158.357,73.953Z" fill="#ffffff"></path><path d="M140.6,74.575a1.227,1.227,0,1,1-1.226-1.244A1.235,1.235,0,0,1,140.6,74.575Z" fill="#ffffff"></path><path d="M147.073,80.841a1.226,1.226,0,1,1-1.227-1.245A1.235,1.235,0,0,1,147.073,80.841Z" fill="#ffffff"></path><path d="M154.679,80.841a1.226,1.226,0,1,1-1.226-1.245A1.235,1.235,0,0,1,154.679,80.841Z" fill="#ffffff"></path><path d="M139.044,84.574a1.227,1.227,0,1,1-1.226-1.245A1.235,1.235,0,0,1,139.044,84.574Z" fill="#ffffff"></path><path d="M145.846,88.112a1.226,1.226,0,1,1-1.225-1.244A1.236,1.236,0,0,1,145.846,88.112Z" fill="#ffffff"></path><path d="M135.063,72.087a1.226,1.226,0,1,1-1.227-1.244A1.235,1.235,0,0,1,135.063,72.087Z" fill="#ffffff"></path><path d="M142.613,66.488a1.227,1.227,0,1,1-1.226-1.244A1.236,1.236,0,0,1,142.613,66.488Z" fill="#ffffff"></path><path d="M140.427,83.034a.5.5,0,0,1-.488-.393c-1.616-7.341,1.129-9.816,1.247-9.918a.5.5,0,0,1,.658.753c-.044.041-2.395,2.287-.929,8.95A.5.5,0,0,1,140.427,83.034Z" fill="#000000"></path><path d="M135.249,58.7a21.919,21.919,0,0,0,4.176.447l1.915,5.3a3.825,3.825,0,0,0,3.79,1.084c2.582-.494,4.363-2.109,4.062-4.057l-2.086-6.19a3.165,3.165,0,0,0,2.641-1.924c.867-1.915,5.215-16.321-10.065-15.408,0,0-4.54.585-5.651,4.1s.227,5.428-.684,7.127-2.281,3.46-.881,5.262S133.719,57.98,135.249,58.7Z" fill="#fce0d1" fill-rule="evenodd"></path><path d="M135.728,52.808a1.888,1.888,0,0,1-1.5-.185c-1.481-.788.457-3.044,1.673-4.2a.5.5,0,1,1,.689.725c-1.063,1.012-1.982,2.278-1.891,2.606a.818.818,0,0,0,1.135-.2.5.5,0,0,1,.871.485,1.045,1.045,0,0,0-.074.265,1.824,1.824,0,0,0,.553-.134.5.5,0,1,1,.343.94C136.846,53.363,136.05,53.468,135.728,52.808Z" fill="#000000"></path><path d="M136.572,55.473a2.313,2.313,0,0,1-1.875-1.245.5.5,0,1,1,.87-.493,1.5,1.5,0,0,0,.948.735c.415.042.815-.349,1.082-.673a.5.5,0,0,1,.774.633A2.385,2.385,0,0,1,136.572,55.473Z" fill="#000000"></path><path d="M133.419,46.1c0-.048.077-1.168,1.774-1.29a.5.5,0,0,1,.073,1c-.623.045-.829.262-.851.371A.5.5,0,0,1,133.419,46.1Z" fill="#000000"></path><path d="M141.556,46.692a.5.5,0,0,1-.422-.232c-.807-1.263-2.472-.512-2.543-.479a.5.5,0,0,1-.424-.905,2.961,2.961,0,0,1,3.81.847A.5.5,0,0,1,141.556,46.692Z" fill="#000000"></path><path d="M148.581,51.97a.5.5,0,0,0,.56-.433.5.5,0,0,0-.433-.559c-.524-.066-1.384.083-2.013,1.38a.289.289,0,0,0-.095.207,6.1,6.1,0,0,0-.333,1,.5.5,0,1,0,.971.236c.039-.158.091-.34.153-.525a2.856,2.856,0,0,0,.914.067.5.5,0,0,0-.086-1,1.92,1.92,0,0,1-.366,0A.8.8,0,0,1,148.581,51.97Z" fill="#000000"></path><path d="M137.434,59.117a8.115,8.115,0,0,0,2.113,9.171c4.458,4.231,6.331,4.272,7.362,2.624s-.545-2.005-2.215-2.08-4.7-2.774-5.208-5.012a13.915,13.915,0,0,1-.03-4.837Z" fill="#ffa698" fill-rule="evenodd"></path><path d="M176.183,62.147c4.671-1.389,1.939-3.823.143-3.553a11.7,11.7,0,0,1-7.355-1c-3.607-1.536-11.634-5.978-12.694-7.432a3.985,3.985,0,0,0-.248-4c-1.389-1.773.544-2.162-1.273-4.037s-2.259-1.659-3.378-4.258c-1.527-3.554-5.549-3.823-8.934-2.121-.359-.143-3.015-1.135-4.657.081-1.764,1.307-1.655,2.147-1.655,2.147s-4.388,1.673-2.4,5.2a7.089,7.089,0,0,1,6.922-1.94,7.272,7.272,0,0,0,3.941,3.637s-1.229,4.848,1.786,6.57c0,0,1.091-2.038,2.507-1.541,1.853.649,1.071,2.975,1.071,2.975s-.79,2.255-2.868,2.406l2.068,6.088.424.647a16.856,16.856,0,0,1,5.695,3.431,30.878,30.878,0,0,1,5.829,7.76,15.221,15.221,0,0,0,3.814,4.081,7.083,7.083,0,0,0,1.2.422c3.571.863,4.96-.737.027-5.028,0,0,9.257,4.066,11.767,2.206C179.237,73.9,176,73.372,176,73.372s1.911-.4,1.058-1.828c-1.146-1.918-17.089-4.157-22.2-15.176,0,0,7.062,6.065,13.719,9.288s9.2,3.856,9.747,2.2S160.09,57.837,157.57,55.094C157.57,55.094,171.508,63.537,176.183,62.147Z" fill="#ffa698" fill-rule="evenodd"></path><path d="M136.217,38.495a.5.5,0,0,1-.179-.966,5.718,5.718,0,0,1,3.617-.047.5.5,0,0,1-.333.943A4.85,4.85,0,0,0,136.217,38.495Z" fill="#000000"></path><path d="M134.834,47.127c-.675,0-.677,1.837,0,1.837S135.511,47.127,134.834,47.127Z" fill="#000000"></path><path d="M139.423,47.508c-.675,0-.675,1.836,0,1.836S140.1,47.508,139.423,47.508Z" fill="#000000"></path><path d="M165.594,70.546a1.685,1.685,0,0,1,.051-1.864,1.954,1.954,0,0,1,1.767-1.243l4.071,1.717a2.548,2.548,0,0,1-.168,2.03,4.031,4.031,0,0,1-.987,1.115A18.923,18.923,0,0,1,165.594,70.546Z" fill="#fad353" fill-rule="evenodd"></path><path d="M160.558,60.644a2.133,2.133,0,0,1,.516-1.591,2.089,2.089,0,0,1,1.5-.9l3.021,1.879a4.7,4.7,0,0,1-.911,1.648,2.382,2.382,0,0,1-1.513.776Z" fill="#fad353" fill-rule="evenodd"></path><g><path d="M178.49,67.379a.5.5,0,0,0-.632.317.675.675,0,0,1-.388.453c-1.215.509-5.063-1.2-8.667-2.944a47.418,47.418,0,0,1-4.563-2.572,3,3,0,0,0,.812-.616,4.863,4.863,0,0,0,1.024-1.882c2.506,1.133,7.616,3.273,10.249,2.492a.5.5,0,0,0-.285-.959c-3.656,1.084-14.386-4.686-18.211-7a.5.5,0,0,0-.518.856c.2.119,1.922,1.158,4.3,2.414a3.19,3.19,0,0,0-1.48,1.9c-2.869-2.085-4.9-3.817-4.937-3.848a.5.5,0,1,0-.652.757c.071.062,7.188,6.147,13.828,9.36,4.544,2.2,7.042,3.135,8.539,3.135a1.8,1.8,0,0,0,1.9-1.229A.5.5,0,0,0,178.49,67.379Zm-17.443-7.005a2.059,2.059,0,0,1,1.416-1.708l2.525,1.572a2.528,2.528,0,0,1-1.69,1.693Z" fill="#000000"></path><path d="M177.382,73.193a1.492,1.492,0,0,0,.109-1.905.5.5,0,1,0-.858.512.651.651,0,0,1,.121.566c-.113.26-.557.439-.8.5a25.417,25.417,0,0,1-4.705-.762,4.909,4.909,0,0,0,.491-.655,3.05,3.05,0,0,0,.212-2.467.5.5,0,0,0-.275-.288c-4.377-1.845-4.092-1.771-4.391-1.744a2.414,2.414,0,0,0-2.083,1.5,2.773,2.773,0,0,0-.332,1.114c-8.556-4.716-13.3-13.11-13.073-17.151,1.481-.159,3.64-.611,4.807-1.894a.5.5,0,1,0-.74-.672c-1.276,1.4-4.248,1.613-5.265,1.645a2.318,2.318,0,0,0-1.547-2.066c-1.311-.462-2.338.643-2.818,1.313-2.14-1.709-1.167-5.7-1.156-5.748a.5.5,0,0,0-.331-.6,6.5,6.5,0,0,1-3.511-3.145l1.725-5.33a.5.5,0,1,0-.951-.308l-1.639,5.063a7.854,7.854,0,0,0-6.986,2.137.5.5,0,0,0-.152.37,12.471,12.471,0,0,0-.1,3.377c.141,1.877.006,1.979-.6,3.042-.883,1.552-1.884,3.312-.463,5.139a8.494,8.494,0,0,1,1.116,2.052c.778,1.841,1.339,2.531,3.562,2.744a8.645,8.645,0,0,0,2.453,9.117c2.574,2.443,6.247,5.535,8.13,2.526a1.751,1.751,0,0,0,.261-1.779c-.447-.851-1.772-1.016-2.877-1.065-1.438-.065-4.282-2.6-4.743-4.624a9.994,9.994,0,0,1-.221-2.17,29.144,29.144,0,0,0,1.187,3.215,4.093,4.093,0,0,0,3.208,1.378,5.762,5.762,0,0,0,1.074-.105c2.688-.515,4.263-1.689,4.506-3.277,1.627.924,5.574,3.246,6.86,4.738,1.716,1.991,5.588,9.781,9.412,10.707,1.239.3,3.1.509,3.689-.628.425-.823-.036-1.989-1.37-3.476,3.024,1.12,7.983,2.613,9.889,1.2C179,74.7,179.031,73.763,177.382,73.193Zm-11.3-4.278a1.478,1.478,0,0,1,1.252-.963l3.726,1.571a1.927,1.927,0,0,1-.175,1.4,3.972,3.972,0,0,1-.689.837,19.074,19.074,0,0,1-4.272-1.64A1.385,1.385,0,0,1,166.087,68.915ZM132.861,54.124c-.943-1.213-.424-2.332.543-4.031.678-1.194.886-1.472.726-3.61a11.629,11.629,0,0,1,.079-3.063,6.818,6.818,0,0,1,6.13-1.728,7.717,7.717,0,0,0,3.677,3.5c-.239,1.306-.659,5.1,2.116,6.684a.5.5,0,0,0,.688-.2c.009-.017.93-1.645,1.9-1.307,1.871.657.6,4.235-1.66,4.409a.506.506,0,0,0-.362.147,12.779,12.779,0,0,1-7.372,3.565c-.287,0-2.626.332-3.867-.247C134.176,57.642,134.281,55.95,132.861,54.124Zm11.811,15.207c1.625.073,1.966.4,2.037.532s0,.432-.224.783a1.421,1.421,0,0,1-1.033.765c-1.1.139-2.976-1.034-5.56-3.485a7.572,7.572,0,0,1-2.115-8.33c.633-.042.748-.033,1.093-.063a13.534,13.534,0,0,0,.129,4.4C139.572,66.442,142.819,69.248,144.672,69.331Zm.362-4.287a3.4,3.4,0,0,1-3.257-.848l-1.742-4.817a13.755,13.755,0,0,0,6.808-3.243L148.752,62C149.039,63.973,146.548,64.754,145.034,65.044ZM168.8,77.109c-.162.313-1.033.485-2.565.113-2.65-.64-5.835-5.874-7.421-8.307a48.328,48.328,0,0,0,7.011,4.151C168.581,75.465,168.992,76.736,168.8,77.109ZM166.337,72.2c-14.046-6.827-16.99-15.924-17.019-16.015a.5.5,0,0,0-.956.292,20.785,20.785,0,0,0,4.174,6.766c-1.3-.8-2.442-1.442-2.873-1.681l-1.918-5.891a3.993,3.993,0,0,0,2.812-3.18c.073,0,.152,0,.243-.008-.156,4.608,4.89,13.43,14.561,18.5a29.158,29.158,0,0,0,10.58,2.88,5.133,5.133,0,0,1,1.739.562C175.881,75.93,168.4,73.206,166.337,72.2Z" fill="#000000"></path></g><path d="M141.812,117.051a.5.5,0,0,1-.485-.382,39.677,39.677,0,0,1-1.176-12.093.5.5,0,1,1,.995.1,39.524,39.524,0,0,0,1.153,11.762A.5.5,0,0,1,141.812,117.051Z" fill="#000000"></path><path d="M29.456,140.738a.863.863,0,0,1-.809-.437c-.583-1.062-1.618-1.429-2.692-3.157a4.709,4.709,0,0,1,.167-4.738c.166-.28-.077-.9-.243-1.165a.5.5,0,1,1,.849-.528,2.375,2.375,0,0,1,.252,2.2,3.716,3.716,0,0,0-.176,3.7,7.887,7.887,0,0,0,1.488,1.74,5.767,5.767,0,0,1,1.188,1.386c.868,0,4.2-2.43,4.906-4.2.521-1.318-1.771-3.881-3.338-5.187a.5.5,0,0,1,.639-.769c.473.394,4.585,3.908,3.628,6.324C34.515,137.93,30.891,140.738,29.456,140.738Z" fill="#000000"></path><path d="M190.935,92.975a11.4,11.4,0,0,1,.282-2.5c.013-1.211-.181-2.8-1.365-3.053-.88-.182-1.665.327-2.327,1.538a9.131,9.131,0,0,0-.8,2.128.5.5,0,0,1-.987-.076c-.118-2-.956-7.179-2.951-7.025-2.537.08-2.762,3.245-2.771,3.38a.494.494,0,0,1-.525.467.5.5,0,0,1-.473-.52,9.949,9.949,0,0,0-.84-4.369,2.476,2.476,0,0,0-4.059-.6c-1.454,1.6-1.252,4.994-1.25,5.028a.5.5,0,0,1-.97.2c-.624-1.76-1.364-2.727-2.14-2.8-1.1-.077-2.248,1.51-2.6,2.136a.5.5,0,0,1-.87-.493c.163-.288,1.655-2.826,3.561-2.64a2.889,2.889,0,0,1,2.108,1.554c.31-2.472,1.4-4.711,3.911-4.8,2.37-.074,3.523,1.876,3.953,4.2a3.456,3.456,0,0,1,2.939-1.76c2.327-.063,3.341,3.391,3.733,5.8.744-1.512,1.925-2.7,3.571-2.338a2.633,2.633,0,0,1,1.979,2.227,1.747,1.747,0,0,1,2.024-.48.5.5,0,1,1-.342.939.757.757,0,0,0-.763.047,2.557,2.557,0,0,0-.745,1.428,13.441,13.441,0,0,1-.294,2.474A.5.5,0,0,1,190.935,92.975Z" fill="#000000"></path><path d="M89.069,149.295c-2.892,0-14.331-4.294-17.748-7.466A.5.5,0,1,1,72,141.1c3.526,3.272,15.464,7.477,17.159,7.2.018-.3-.589-.678-.884-.819a.5.5,0,1,1,.406-.916l.277.1c1.268.459,5.683.69,5.581-.7a.419.419,0,0,0-.151-.335c-.418-.328-1.639-.122-2.368,0-.881.148-1.412.236-1.678-.185a.692.692,0,0,1,.087-.807c1.025-1.459,3.915.092,5.762-1.7a.689.689,0,0,0,.2-.262,5.263,5.263,0,0,0-2.178-.439c-.556-.053-.958-.092-.963-.569s.362-.534,1.251-.64a4.515,4.515,0,0,0,3.513-2.754.5.5,0,0,1,.912.41,5.776,5.776,0,0,1-2.707,2.866c2.3.683.875,2.669-1.377,3.184a1.407,1.407,0,0,1,.693,1.158c.162,2.18-3.263,2.3-5.433,2.02a1.239,1.239,0,0,1-.081.933A.984.984,0,0,1,89.069,149.295Z" fill="#000000"></path><path d="M29.175,144.525a12.513,12.513,0,0,0,7.015-2.1,8.9,8.9,0,0,0,4.275-5.915l1.606,1.027a11.739,11.739,0,0,1-4.509,6.217,18.3,18.3,0,0,1-7.616,2.554Z" fill="#e2f9fe" fill-rule="evenodd"></path><path d="M104.7,104.85h-.921A122.346,122.346,0,0,1,74.14,126.312,302.91,302.91,0,0,1,42.7,139.97a1.61,1.61,0,0,0-.934-.323,12.065,12.065,0,0,0,.79-1.975.5.5,0,0,0-.213-.553l-1.606-1.027a.5.5,0,0,0-.765.36,6.385,6.385,0,0,1-.477,1.53,1.364,1.364,0,0,0-1.224,1.982,12.44,12.44,0,0,1-9.051,4.063.5.5,0,0,0-.5.7l.771,1.786a.5.5,0,0,0,.49.3,18.639,18.639,0,0,0,7.848-2.628,9.988,9.988,0,0,0,2.787-2.639,3.06,3.06,0,0,0,.29-.119,1.366,1.366,0,0,0,1.853.045c1.309-.335,15.163-4,32.678-13.681a146.313,146.313,0,0,0,29.138-20.972ZM40.8,137.319l.68.434c-.077.219-.2.543-.367.912a2.893,2.893,0,0,0-.633-.448A8.723,8.723,0,0,0,40.8,137.319Zm-3.5,6.011a18.14,18.14,0,0,1-7.039,2.447l-.325-.753c3.686-.186,8.181-2.36,10.116-5.9a2.116,2.116,0,0,1,.47.355,1.16,1.16,0,0,1,.112.152A9.84,9.84,0,0,1,37.3,143.33Z" fill="#000000"></path><path d="M168.774,110.2c-.994-.63-2,1.155-2.538.278-.326-.537-.916-3.475-1.463-4.619a2.734,2.734,0,0,1-.093-2.239c.457-1.89,1.744-10.349,1.269-12.372a9.332,9.332,0,0,1-.005-3.688,21.64,21.64,0,0,0-2.586-7.006,16.115,16.115,0,0,1,4.1-1.053.5.5,0,0,0,.459-.537.477.477,0,0,0-.536-.459,17.364,17.364,0,0,0-7.413,2.672,20.908,20.908,0,0,1-4.758,2.634,7.72,7.72,0,0,1-3.068.208A23.363,23.363,0,0,0,150.93,79.1c-1.262-3.819-1.192-4.525-.125-7.682.985-2.919,4.374-3.777,4.408-3.785a.5.5,0,0,0,.368-.6.507.507,0,0,0-.6-.369c-.161.039-3.957.988-5.12,4.437-1.127,3.334-1.22,4.252.123,8.316a17.56,17.56,0,0,1,1.183,5.019.5.5,0,0,0,.429.532,10.907,10.907,0,0,0,3.227-.015,9.5,9.5,0,0,0,1.037,4.531,9.807,9.807,0,0,1-5.039.314c-2.942-.723-2.362-1.491-8.015-.7a17.857,17.857,0,0,1-8.473-.757c.343-.777,1.021-2.334,1.416-3.374a3.177,3.177,0,0,0,.1-1.676,7.1,7.1,0,0,0-.7-1.895.507.507,0,0,0-.009-.054,8.378,8.378,0,0,1,.077-6.722.5.5,0,0,0-.871-.491,8.993,8.993,0,0,0-.544,6.3,32.932,32.932,0,0,1-3.877-4.055.5.5,0,0,0-.776.631c.1.129.45.549.924,1.091-.583.685-1.929,2.291-2.845,3.579a13.838,13.838,0,0,0-4.736,3.879c-2.169,2.721-8.261,10.505-11.371,11.978-3.748,1.778-4.9.983-6.854,4.865-.244.484-.3.591-.579.7-.706.281-1.55.755-1.558,1.415a.911.911,0,0,0,.665.845,2.637,2.637,0,0,0,1.59.071,2.843,2.843,0,0,0-.04,1.986,1.359,1.359,0,0,0,1.925.171,1.587,1.587,0,0,0,1.689-.048,1.777,1.777,0,0,0,1.981-.314,1.147,1.147,0,0,0,.793.069c.724,3.657,2.857,11.676,6.384,10.437s3.088-4.717.986-7.8a51.913,51.913,0,0,0-4.269-5.088,7.453,7.453,0,0,0,1.748-2.959,5.147,5.147,0,0,1,2.608-3.033c1.616-.884,6.937-4.73,10.089-7.081a49.839,49.839,0,0,0,4.441-3.279,6.1,6.1,0,0,0,1.332-2.177c.086-.147.171-.288.255-.428-.512,1.227-1.087,2.512-1.095,2.53a.5.5,0,0,0,.242.655,13.731,13.731,0,0,0,3.2.928,6.264,6.264,0,0,0,.036,2.167.5.5,0,0,0,.212.3c.109.072,1.92,1.206,6.384,1.206a39.3,39.3,0,0,0,8.56-1.071.5.5,0,0,0,.368-.34l.389-1.247a11.117,11.117,0,0,0,4.176-.8.5.5,0,0,0,.225-.72,9.189,9.189,0,0,1-1.183-3.971,12.349,12.349,0,0,1,1.773,2.924c.09.849-.525,3.857.375,6.183a13.969,13.969,0,0,1,1.009,5c0,.584.057,1.134.108,1.668.187,1.952,0,1.377.17,2.726a2.941,2.941,0,0,1-.219,2.149,6.826,6.826,0,0,0-.829,5.187c.425,1.305.22,2.655,1.087,3.534.733.741,1.315,1.576,1.918,1.576a.679.679,0,0,0,.645-.483,2.494,2.494,0,0,0-.455-1.766l-.009-.019a7.836,7.836,0,0,0,1.128.432,6.5,6.5,0,0,1,1.027.707c.853.66,1.416,1.089,1.9.748s.259-1.184.044-1.757c.968.284,2.61.71,2.765-.253a1.268,1.268,0,0,0-.551-1.133c.715-.206,1.427-.58,1.514-1.258C169.308,110.94,169.16,110.444,168.774,110.2Zm-62.941-3.626c-.012.016-.015.036-.026.054s-.025.023-.033.038a.618.618,0,0,1-.568.244,3.857,3.857,0,0,1,.409-1.987.411.411,0,0,0,.038-.045c.4-.718,1.192-1.7,1.676-1.763A9.786,9.786,0,0,1,105.833,106.575Zm1.776-.018a.788.788,0,0,1-.719.214c.19-.315.45-.779.7-1.291a.5.5,0,0,0,.2-.258,7.13,7.13,0,0,1,1.233-2.5C109.154,102.931,109.056,104.226,107.609,106.557Zm1.925-.3a1.531,1.531,0,0,1-.857.46,11.835,11.835,0,0,0,1.191-2.592.485.485,0,0,0,.125-.195,4.575,4.575,0,0,1,.892-1.669C111.151,102.653,110.6,104.969,109.534,106.254Zm2.774-1.231a4.712,4.712,0,0,1-1.589,1.289,8.7,8.7,0,0,0,.892-1.935.515.515,0,0,0,.136-.163,4.3,4.3,0,0,1,.98-1.337A3.28,3.28,0,0,1,112.308,105.023Zm3.812,10.842c-.013.005-.045.017-.13-.031-1.6-.873-3.649-9.309-3.682-9.409.041-.036.082-.077.123-.115C114.3,109.669,116.6,114.646,116.12,115.865Zm2.472-.707a2.644,2.644,0,0,1-1.815,1.624,1.122,1.122,0,0,1-.533.061,1.314,1.314,0,0,0,.211-.037,1.064,1.064,0,0,0,.648-.66c.752-2.011-3-8.911-3.913-10.53a50.848,50.848,0,0,1,4.08,4.869C117.722,111.148,119.152,113.444,118.592,115.158Zm13.481-27.444a48.733,48.733,0,0,1-4.368,3.225c-3.159,2.353-8.43,6.167-10,7.026a6.128,6.128,0,0,0-3.086,3.623,5.392,5.392,0,0,1-.85,1.716c0-1.509-.989-1.831-1.865-1.02-.144-1.073-.7-.366.364-1.068a.5.5,0,0,0-.552-.834,8.866,8.866,0,0,1-5.213,1.524.5.5,0,0,0-.428.82,6.58,6.58,0,0,0-1.185,1.479,2.729,2.729,0,0,1-1.643.252,3.324,3.324,0,0,1,.806-.434c1.056-.423.838-1.135,2.126-2.843,1.2-1.592,2.14-1.22,5.365-2.748,3.346-1.585,9.389-9.326,11.725-12.259a12.694,12.694,0,0,1,4.475-3.638.518.518,0,0,0,.218-.175c.834-1.192,2.142-2.764,2.779-3.516a14.488,14.488,0,0,0,3.565,3.1,5.313,5.313,0,0,1,.522,1.34C132.416,86.572,132.892,87.031,132.073,87.714Zm19.266,3.964c-8.944,1.96-12.9.434-13.726.032a5.836,5.836,0,0,1,.022-1.57,20.18,20.18,0,0,0,5.308-.052c3.957-.557,4.581-.333,5.826.116a12.374,12.374,0,0,0,2.8.735Zm16.883,19.872c-.027.209-.956.544-1.963.624a.5.5,0,0,0-.16.957,4.951,4.951,0,0,1,.891.511,15.132,15.132,0,0,1-2.442-.686.5.5,0,0,0-.455.881,3.008,3.008,0,0,1,.544,1.067,10.969,10.969,0,0,0-1.744-1.207c-1.873-.763-.2.508-2.38-3.058a.5.5,0,0,0-.916.364c0,.018.357,1.7.413,2.352a4.584,4.584,0,0,0,.556,1.43c-.09-.1-.4-.437-.567-.6-.541-.549-.431-1.866-.848-3.143a5.915,5.915,0,0,1,.671-4.264c.925-1.2.316-2.864.347-3.761.039-1.1-.19-2.248-.2-3.4a14.934,14.934,0,0,0-1.077-5.35c-.75-1.938-.288-4.623-.288-5.7a8.065,8.065,0,0,1,.5-1.9.5.5,0,1,0-.937-.35c-.022.059-.109.3-.208.606a28.636,28.636,0,0,0-1.683-2.46c2.494-1.123,4.151-2.568,6.147-3.5a21.736,21.736,0,0,1,2.521,6.574,9.654,9.654,0,0,0,.03,3.95c.436,1.852-.894,10.355-1.2,11.65a3.914,3.914,0,0,0,.1,3.163c.511,1.068,1.07,3.984,1.511,4.707.594.977,1.6.855,2.587.221a1.251,1.251,0,0,1,.257-.134A1.526,1.526,0,0,1,168.222,111.55Z" fill="#000000"></path><path d="M8.453,145.318a.5.5,0,0,1-.431-.561.494.494,0,0,1,.56-.431c.176.022,17.632,2.277,21.849,2.009a.51.51,0,0,1,.531.467.5.5,0,0,1-.466.531C26.606,147.585,12.3,145.816,8.453,145.318Z" fill="#000000"></path><path d="M69.587,103.865a.5.5,0,0,1-.5-.457c-.16-1.857-1.1-7.123-3.248-7.123-2.023,0-3.725,2.555-4.409,4.422a.5.5,0,0,1-.967-.114c-.334-2.93-1.927-10.454-5.068-10.213-3.827.319-4,2.786-4.008,2.891a.5.5,0,0,1-.989.079c-.018-.084-1.77-8.412-5.749-8.148-3.947.22-4.352,6.509-4.356,6.573a.5.5,0,0,1-.452.469.508.508,0,0,1-.532-.376c-1.284-5.138-5.5-18.5-9.562-18.608a3.058,3.058,0,0,0-2.516.985c-1.79,1.988-1.248,6.255-1.242,6.3A.5.5,0,0,1,25,80.7c-.006-.037-.662-3.563-2.5-4.753a2.265,2.265,0,0,0-1.868-.3c-2.718.668-2.922,6.47-2.866,8.137a1.644,1.644,0,0,1,.068.515.592.592,0,0,1-.5.536.606.606,0,0,1-.53-.519c-.012-.092-.024-.234-.033-.416a10.962,10.962,0,0,0-3.766-5.02,3.978,3.978,0,0,0-3.973-.469c-4.471,1.937-3.431,9.321-3.42,9.4a.5.5,0,0,1-.989.146c-.05-.335-1.156-8.22,4.012-10.459,3.313-1.433,6.355,1.064,8.186,4.176.209-2.659,1.012-6.364,3.574-6.993,2.12-.521,3.626.857,4.59,2.827.34-3.044,1.737-5.3,4.787-5.245,4.582.124,8.427,11.915,9.9,17.122.545-2.144,1.845-5.008,4.917-5.179,3.635-.184,5.6,4.765,6.38,7.387.606-.95,1.839-2,4.338-2.206,3.755-.351,5.347,6.2,5.9,9.439,1-1.793,2.579-3.538,4.629-3.538s3.125,2.522,3.686,4.754c.656-3.626,2.187-8.94,5.527-8.94,1.643,0,3.25.845,4.427,3.127.117-2.248.751-4.532,2.738-5.081,1.935-.526,3.418.366,4.388,2.131.273-2.759,1.124-6.763,3.772-6.873a2.351,2.351,0,0,1,2.382,1.588c.623-2.586,1.958-7.086,4.57-6.539,2.673.566,3.968,4.294,4.533,6.708a4.434,4.434,0,0,1,3.741-2.451c2.515-.184,3.642,2.968,4.159,5.437.632-2.229,1.984-4.779,4.862-4.93,1.672-.1,3.256.354,3.917,1.893,1.867-4.6,5-7.138,9.047-4.269a.5.5,0,0,1-.578.817,4.022,4.022,0,0,0-3.813-.826c-3,1.129-4.392,6.57-4.476,6.913a.5.5,0,1,1-.978-.214,2.519,2.519,0,0,0-3.067-3.316c-4.143.217-4.464,7.226-4.467,7.3a.5.5,0,0,1-1,.007c-.128-2.487-1.061-8.026-3.532-7.811-3.142.236-3.423,3.475-3.434,3.613a.5.5,0,0,1-1,.023C101.013,86.334,99.8,81,97.128,80.43c-2.235-.467-3.616,6.531-3.992,8.775a15.88,15.88,0,0,1-.34,2.413.5.5,0,0,1-.984-.165c.012-.116.111-1.016.317-2.276.1-1.659-.055-3.887-1.7-3.774-2.423.1-2.947,6.218-2.94,8.354a.5.5,0,0,1-.454.5.514.514,0,0,1-.538-.408c0-.025-.486-2.562-1.995-3.508a2.391,2.391,0,0,0-2.01-.231c-2.218.611-2.193,4.814-1.868,7.474A14.03,14.03,0,0,1,80.842,99a.5.5,0,0,1-.988.145c-.016-.08-.108-.554-.2-1.257-1.275-6.3-4.695-5.788-4.595-5.788-3.358,0-4.729,8.154-4.975,11.3A.5.5,0,0,1,69.587,103.865Z" fill="#000000"></path><path d="M185.59,100.854a.5.5,0,0,1,.419-.569,2.267,2.267,0,0,0,2.108-2.49c-2.519.583-2.958,2.038-2.962,2.054a.5.5,0,0,1-.97-.246c.024-.094.624-2.3,4.3-2.9a.5.5,0,0,1,.571.4,4.049,4.049,0,0,1-.558,2.843,3.336,3.336,0,0,1-2.343,1.329A.5.5,0,0,1,185.59,100.854Z" fill="#000000"></path><path d="M164.464,113.949a.5.5,0,0,1-.205-.044c-.743-.337-1.38-.165-1.839-.967a14.149,14.149,0,0,0-1.365-1.676.5.5,0,1,1,.732-.68,14.691,14.691,0,0,1,1.5,1.861c.181.317.6.2,1.381.55A.5.5,0,0,1,164.464,113.949Z" fill="#000000"></path><path d="M164.105,112.569c-.27-.408-.914-1.168-.92-1.176a.5.5,0,1,1,.763-.647c.028.034.688.814.99,1.27.138.208.934.167,1.361.145a.487.487,0,0,1,.525.474.5.5,0,0,1-.474.525C165.538,113.2,164.555,113.246,164.105,112.569Z" fill="#000000"></path><path d="M56.21,67.854a.5.5,0,0,1,.447-.548,13.9,13.9,0,0,0,9.7-7.156,17.95,17.95,0,0,0,1-2.073c-5-.895-7.886-4.041-8.554-7.3a6.393,6.393,0,0,1,4.678-7.709c2.645-.731,4.15.337,4.948,1.36,2.095,2.689,1.847,8.226.292,12.823A18.7,18.7,0,0,0,73,57.141C87.169,55.224,89.86,37.279,89.886,37.1a.5.5,0,1,1,.99.139c-.026.189-2.832,18.878-17.747,20.894a19.383,19.383,0,0,1-4.758.092,18.661,18.661,0,0,1-1.143,2.421C63.3,67.568,57.022,68.274,56.757,68.3A.5.5,0,0,1,56.21,67.854Zm7.54-23.82c-6.487,1.793-5.353,11.542,3.972,13.088C69.769,51.294,69.73,42.384,63.75,44.034Z" fill="#000000"></path><path d="M91.915,30.6c1.744.574-1.15,5.749-2.862,4.945-1.093-.514-.759-2.7.124-3.67S90.838,30.243,91.915,30.6Z" fill="#fad353" fill-rule="evenodd"></path><path d="M23.851,133.2c-.676,0-.675,1.835,0,1.835S24.526,133.2,23.851,133.2Z" fill="#000000"></path><path d="M175.292,99.921c-.107-.039-2.648-.964-2.7-3.154a.5.5,0,0,1,.732-.455,2.176,2.176,0,0,0,1.232.223c1.311-.286,2.869.443,2.576,1.808a.5.5,0,1,1-.978-.209.338.338,0,0,0-.088-.353,1.654,1.654,0,0,0-1.3-.27,2.494,2.494,0,0,1-.974,0,3.725,3.725,0,0,0,1.835,1.465A.5.5,0,0,1,175.292,99.921Z" fill="#000000"></path><path d="M69.776,116.526a.5.5,0,0,1-.219-.95c3.021-1.468,3.077-3.546,2.941-4.431-2.874.758-4.748,3.99-4.768,4.024a.5.5,0,1,1-.868-.5c.094-.164,2.333-4.023,5.928-4.611a.5.5,0,0,1,.55.321c.014.037,1.337,3.817-3.346,6.093A.5.5,0,0,1,69.776,116.526Z" fill="#000000"></path><path d="M42.141,110.933s-3.411-3.37-1.033-4.727,4.492.235,3.573,3.905c0,0,1.765-4.741,4.3-2.231,2.765,2.739-3.643,4.122-2.83,4.272,1.583.292,4.83,1.568,3.573,3.3-2.377,3.284-4.8-1.81-4.8-1.81s.78,4.689-2.169,4.391-1.285-3.876-.728-4.509c0,0-4.971,1.712-4.905-1.225C37.2,108.81,40.081,109.7,42.141,110.933Z" fill="#8de3a7" fill-rule="evenodd"></path><path d="M27.345,98.389s4.76-.582,4.348,2.124-2.973,3.375-5.28.378c0,0,2.622,4.327-.92,4.755-3.864.468-.971-5.415-1.593-4.871-1.212,1.06-4.227,2.814-4.808.751-1.1-3.9,4.4-2.639,4.4-2.639s-4.16-2.3-2.1-4.426,3.836,1.4,3.987,2.228c0,0,1.743-4.96,4-3.085C32.076,95.835,29.589,97.538,27.345,98.389Z" fill="#fad353" fill-rule="evenodd"></path><path d="M44.235,110.171a1.762,1.762,0,0,1,1.389,2.921c-.939.932-2.415,1.32-3.26.73S40.817,110.5,44.235,110.171Z" fill="#ffffff" fill-rule="evenodd"></path><path d="M26.643,100.5a1.762,1.762,0,0,1-3.151-.725c-.148-1.314.464-2.713,1.451-3.009S28.506,97.616,26.643,100.5Z" fill="#ffffff" fill-rule="evenodd"></path><path d="M50.388,114.077c-.407-1.019-1.8-1.706-2.926-2.088,1.092-.5,2.466-1.265,2.686-2.447a2.246,2.246,0,0,0-.815-2.017c-1.343-1.33-2.781-1.108-3.965.357-.284-2.441-2.375-3.326-4.508-2.111-1.481.846-1.29,2.374-.41,3.823-2.318-.741-3.77.2-3.827,2.7-.05,2.213,2.141,2.514,4.382,2.033-1.126,2.65-.027,4.225,2.007,4.225,1.66,0,2.37-1.377,2.491-3.046,1.507,1.893,3.243,2.159,4.625.244A1.67,1.67,0,0,0,50.388,114.077Zm-3.107-6.406a1.466,1.466,0,0,1,1.348.565,1.34,1.34,0,0,1,.536,1.123c-.165.883-1.889,1.627-2.714,1.985a2.433,2.433,0,0,0-.133-.436,2.13,2.13,0,0,0-1-1.017C45.677,109.123,46.423,107.86,47.281,107.671Zm-2.009,5.067a2.355,2.355,0,0,1-2.622.673,1.585,1.585,0,0,1-.436-1.517c.227-.868,1.251-1.146,2.07-1.225A1.266,1.266,0,0,1,45.272,112.738Zm-3.917-6.1c1.918-1.094,3.531.007,2.907,3.037a4.048,4.048,0,0,0-2.028.625c-.608-.675-1.58-1.974-1.459-2.89A1.023,1.023,0,0,1,41.355,106.64Zm-3.364,6.585a.973.973,0,0,1-.368-.91c.021-.953.265-1.565.723-1.818.616-.343,1.761-.1,3.111.626a2.484,2.484,0,0,0-.112,2.085C40.375,113.465,38.718,113.755,37.991,113.225Zm5.931,3.968a1.273,1.273,0,0,1-1.115.346c-.922-.093-1.1-.543-1.156-.69a3.628,3.628,0,0,1,.492-2.586,2.593,2.593,0,0,0,2.357.112A4.172,4.172,0,0,1,43.922,117.193Zm5.4-2.031c-.459.635-.929.926-1.4.893-.954-.068-1.9-1.446-2.358-2.269a1.927,1.927,0,0,0,.842-1.065c1.193.287,2.753.973,3.055,1.727A.683.683,0,0,1,49.318,115.162Z" fill="#000000"></path><path d="M29.443,97.894c2-1.335,2.21-3.06.263-4.675-1.708-1.416-3.3.123-4.314,2.174-1.078-1.978-2.795-2.89-4.356-1.28-1,1.032-1.092,2.485.638,4.074-2.389,0-3.711,1.176-3.063,3.474a1.672,1.672,0,0,0,1.151,1.242c1.051.313,2.453-.351,3.452-1-.285,1.166-.539,2.716.25,3.624a2.276,2.276,0,0,0,2.089.612c1.9-.23,2.588-1.526,2.181-3.33,2.075,1.286,4.081.218,4.453-2.224C32.444,98.906,31.132,98.105,29.443,97.894Zm-1.318-4.182a.978.978,0,0,1,.942.277c.734.608,1.062,1.178.976,1.694-.115.694-1.012,1.444-2.42,2.051a2.469,2.469,0,0,0-1.567-1.381C26.454,95.433,27.254,93.954,28.125,93.712Zm-4.136,6.01c-.124-1.106.389-2.263,1.1-2.476a1.591,1.591,0,0,1,1.462.6c.538.717.12,1.69-.325,2.381A1.1,1.1,0,0,1,25,100.7,1.27,1.27,0,0,1,23.989,99.722ZM21.332,95.9a1.256,1.256,0,0,1,.421-1.09c.644-.664,1.107-.525,1.259-.478a3.627,3.627,0,0,1,1.72,1.987,2.685,2.685,0,0,0-1.562,1.775C22.441,97.59,21.457,96.74,21.332,95.9Zm-1.285,6.045a.684.684,0,0,1-.473-.555,1.661,1.661,0,0,1,.168-1.649c.657-.691,2.3-.591,3.232-.442a2.14,2.14,0,0,0,.312,1.331C22.32,101.383,20.822,102.17,20.047,101.945Zm6.665,2.5a1.487,1.487,0,0,1-1.279.706,1.352,1.352,0,0,1-1.214-.277c-.583-.67-.113-2.477.124-3.344a2.139,2.139,0,0,0,1.849,0C26.582,102.3,27.1,103.65,26.712,104.444Zm.3-3.612a4.125,4.125,0,0,0,.769-1.979c.907-.055,2.527-.011,3.17.65a1.023,1.023,0,0,1,.246.935C30.861,102.648,28.982,103.173,27.014,100.832Z" fill="#000000"></path><path d="M79.122,152.878a1.39,1.39,0,0,0-.723-.8c-.851-.327-1.411.732-2.427.372-1.044-.362-1.591-1.742-1.762-2.253a5.945,5.945,0,0,0-.228-5.123.5.5,0,0,0-.886.464c2,3.826-1.606,7.563-4.922,10.331-.261.217-.484.4-.651.552a5.608,5.608,0,0,0-1.791,5.191c.15,1.406.121,1.539-1.606,2.674-1.838,1.208-2.805,5.3-4.17,5.356-.435.019-.825.026-1.185.027a2.059,2.059,0,0,1,1.407-1.169.5.5,0,0,0,.379-.6.506.506,0,0,0-.6-.379,3.125,3.125,0,0,0-2.257,2.12,10.273,10.273,0,0,1-1.317-.145,2.7,2.7,0,0,1,2.129-1.31.5.5,0,1,0-.137-.99,3.617,3.617,0,0,0-2.959,2,.761.761,0,0,1-.187-.136c.189-1.061,1.969-1.717,3.407-2.247l.609-.228c2.063-.791,3.924-6.078,1.687-9.112a7.256,7.256,0,0,1-1.129-5.659.5.5,0,0,0-.961-.276C57.751,155.1,53.2,157.171,51.6,157.8a2.109,2.109,0,0,0-.472-.906c-.773-.854-4.125-4.039-4.267-4.174a.5.5,0,0,0-.689.725c.035.033,3.467,3.3,4.216,4.121a1.407,1.407,0,0,1,.3.9c-.1,1.68-1.683,6.5-1.7,8.606-.019,2.07-.629,3.4-1.919,4.183a3.6,3.6,0,0,1-2.385.381c.316-.563.884-1.27,1.528-1.217a.493.493,0,0,0,.517-.482.5.5,0,0,0-.483-.518c-1.442-.043-2.276,1.364-2.579,1.994a1.105,1.105,0,0,1-.728-.424,3.766,3.766,0,0,1,2.731-1.553.5.5,0,0,0,.371-.765c.993-.882.811-2.559.615-4.315-.345-3.093-2.855-5.5-6.887-6.6-3.784-1.031-9.418-12.918-10.842-15.337-1.686-2.871-4.485-.942-6.831-.465a4.142,4.142,0,0,1-2.874-.379,1.9,1.9,0,0,1,.26-.078c1.218-.281,5.07-2.135,4.837-3.154-.051-.223-.249-.576-1-.4a10.11,10.11,0,0,1-6.766-1.012,2.913,2.913,0,0,0,.474-1.175,2.22,2.22,0,0,0-.772-2.229.5.5,0,0,0-.473-.061c-1.571.381-1.83,1.318-1.844,1.845-.066,2.409,5.039,4.071,8.384,3.788a11.7,11.7,0,0,1-3.063,1.424c-1.184.274-1.178.917-1.121,1.18.215.989,2.315,1.61,4.16,1.232,2.531-.518,4.54-2.1,5.768-.01,1.015,1.724,3.479,6.867,6.294,10.906-1.5,3.6-4.107,8.638-5.374,8.938-2.143.5-5.7.453-5.143,3.146a.485.485,0,0,0,.105.327,2.32,2.32,0,0,0,.8,1.072c1.451,1.067,3.7.613,5.381-.041,3.835-1.493,8.393-6.045,10.24-8.271,3.1,1.069,5.021,3.02,5.293,5.461.321,2.877.142,3.547-1.01,3.776a3.716,3.716,0,0,0-2.764,1.624,1.374,1.374,0,0,0,.028,1.221,1.836,1.836,0,0,0,1.742,1.34,4.888,4.888,0,0,0,3.93-.317c1.593-.968,2.377-2.614,2.4-5.03.016-1.783,1.434-6.339,1.668-8.231,1.125-.409,4.914-1.948,7.011-4.8a7.707,7.707,0,0,0,1.466,4.014c1.851,2.511.185,7.045-1.24,7.585-1.848.7-4.483,1.483-4.664,3.39a.9.9,0,0,0,.276.7c.674.723,2.524,1.023,5.5.9,1.286-.056,2.043-1.463,2.845-2.954a7.419,7.419,0,0,1,1.831-2.567c1.876-1.232,2.259-1.679,2.051-3.616a4.636,4.636,0,0,1,1.464-4.339c.186-.165.512-.437.772-.653a8.418,8.418,0,0,0,3.846,1c-.558,1.21-1.341,2.56-1.871,2.77-.835.332-2.19,1.238-2.273,2.256-.11,1.345,1.922,1.7,3.265,1.7,1.3,0,2.93-.329,3.579-1.451.981-1.693-.064-1.1,1.448-3.211C77.7,158.546,80.053,155,79.122,152.878Zm-52.264,14.07a2.347,2.347,0,0,1,1.848-1.137.5.5,0,0,0,.432-.56.5.5,0,0,0-.559-.432,3.328,3.328,0,0,0-2.749,1.954,1.56,1.56,0,0,1-.921-.763,3.126,3.126,0,0,1,2.627-1.163.493.493,0,0,0,.387-.854c.432-.073.868-.145,1.287-.244,2-.471,4.779-6.519,5.829-8.962,1.446,1.93,2.934,3.429,4.307,3.88C36.657,161.8,31.053,167.088,26.858,166.948ZM76.144,159c-1.573,2.194-.744,1.985-1.5,3.292a2.406,2.406,0,0,1-1.686.867c.345-.621.845-1.309,1.314-1.4a.5.5,0,0,0-.189-.982c-1.171.226-2,1.817-2.287,2.461a6.072,6.072,0,0,1-1.285-.157,2.517,2.517,0,0,1,1.6-1.33.5.5,0,0,0,.355-.612.5.5,0,0,0-.542-.359,12.547,12.547,0,0,0,2.154-3.7.5.5,0,0,0-.589-.669,6.053,6.053,0,0,1-3.7-.615,18.076,18.076,0,0,0,3.841-4.405,3.833,3.833,0,0,0,2.006,2,3,3,0,0,0,2.4-.386.721.721,0,0,1,.166.274C78.669,154.333,77.84,156.632,76.144,159Z" fill="#000000"></path><path d="M44.213,143.2a.5.5,0,0,1-.281-.646.5.5,0,0,1,.647-.284,2.275,2.275,0,0,0,1.531.069.5.5,0,0,1,.445.9A3.076,3.076,0,0,1,44.213,143.2Z" fill="#000000"></path><path d="M48.993,144.562a.5.5,0,1,1,0-1,2.3,2.3,0,0,0,1.366-.684.5.5,0,0,1,.66.752A3.22,3.22,0,0,1,48.993,144.562Z" fill="#000000"></path><path d="M54.576,142.58a.5.5,0,0,1-.147-.978,6.622,6.622,0,0,1,2.7-.145.5.5,0,0,1-.156.989A6.169,6.169,0,0,0,54.576,142.58Z" fill="#000000"></path><path d="M92.842,30.831a1.765,1.765,0,0,0-2.251-.7c.134-1.056-.024-2.231-1.075-2.621a2.137,2.137,0,0,0-2.939,2.862c-.957-.114-2.242-.062-2.723.947-.948,1.994-.329,3.11.981,3.556a4.1,4.1,0,0,0,3.062-.55,2.983,2.983,0,0,0,.022.382,1.7,1.7,0,0,0,.921,1.285C90.882,36.943,93.54,32.534,92.842,30.831ZM88.008,33.1c-.564.379-1.961,1.137-2.85.831a1.063,1.063,0,0,1-.7-.539,2.192,2.192,0,0,1,.3-1.641c.309-.652,1.922-.407,2.655-.183a.5.5,0,0,0,.549-.774c-.33-.453-.755-1.293-.617-1.654.208-.547.694-1.113,1.822-.689.761.282.418,1.9.228,2.48A4.108,4.108,0,0,0,88.008,33.1Zm1.258,1.99c-.629-.3-.437-1.692.022-2.5l1.539,1.513C90.321,34.729,89.673,35.278,89.266,35.09Zm2.265-2.121L90.092,31.65a1.591,1.591,0,0,1,1.667-.578C92.236,31.231,91.74,32.511,91.531,32.969Z" fill="#000000" fill-rule="evenodd"></path><path d="M23.482,138.807a2.39,2.39,0,0,0-2.673,1.924c-.5,2.235.922,4.451,2.388,4.129s.774-.986.011-1.733S21.2,140.218,23.482,138.807Z" fill="#fce0d1" fill-rule="evenodd"></path><path d="M21.348,144.677a4.523,4.523,0,0,1-1.027-4.056,2.853,2.853,0,0,1,3.232-2.309.5.5,0,0,1,.192.921,1.982,1.982,0,0,0-1.06,1.438,2.858,2.858,0,0,0,.873,2.1c.6.584,1.145,1.121.966,1.745-.155.543-.771.736-1.22.835A2.1,2.1,0,0,1,21.348,144.677Zm.6-4.977c-1.084.892-.923,3.232.111,4.272a1.177,1.177,0,0,0,1.032.4,1.718,1.718,0,0,0,.442-.145,4.838,4.838,0,0,0-.66-.73A3.4,3.4,0,0,1,21.947,139.7Z" fill="#000000"></path><path d="M108.66,159.235c1.716-1.244,3.556-.836,5.466-.6,1.331.162,3.44-1.746,4.652-2.172s3.018-.743,3.282.426-1.272.693-1.272.693,2.03,1.967,2.845,2.012a28.451,28.451,0,0,0,3.129-.084,12.2,12.2,0,0,1-.447,5.407c-.57-1.432-1.886.491-3.037-.894-.607-.73-1.852-.532-3.2-.766-1.216-.211-2.581.11-3.645,0-2.245-.233-1.786-.316-3.6-.514C110.9,162.529,108.66,159.235,108.66,159.235Z" fill="#ffa698" fill-rule="evenodd"></path><path d="M127.006,164.4c.334-1.459.816-6.176-.562-5.627a3.86,3.86,0,0,1-2.878.287,6.6,6.6,0,0,1-1.64-1.1,1.462,1.462,0,0,0-.039-2.42c-.784-.431-1.979,0-3.036.371-1.656.586-3.574,2.086-4.787,2.233-1.175.139-1.913-.627-4.157-.219a2.866,2.866,0,0,0-1.541.917l-.023.012a.359.359,0,0,0-.046.057c-1.118,1.29-.5,3.013.583,4.361,2.5,3.111,6.719,2.3,8.007,2.486,1.14.161,2.085,2.052,4.134,1.836,1.322-.135,2.733,1.411,4.362,1.411a2.471,2.471,0,0,0,2.435-2A3.607,3.607,0,0,0,127.006,164.4Zm-3.7-4.375a4.527,4.527,0,0,0,3.018-.135,15.192,15.192,0,0,1-.212,3.962,2.535,2.535,0,0,0-1.066.153,2.163,2.163,0,0,1-.682.138c-.093-.467-.279-1.412-.334-1.574-1.035-3.037-4.289-2.888-5.254-3.234a4.966,4.966,0,0,1,2.059-1A8.921,8.921,0,0,0,123.3,160.024Zm-4.359-3.091c.12-.042,1.986-.783,2.462-.523a.515.515,0,0,1,.076.607.741.741,0,0,1-.4.234.5.5,0,0,0-.1,0,10.027,10.027,0,0,0-1.774.609,2.784,2.784,0,0,0-.963-.613A5.85,5.85,0,0,1,118.942,156.933Zm-8.857,1.971c2.122-.389,2.567.412,4.1.226a8.626,8.626,0,0,0,2.788-1.179.5.5,0,0,0,.228.071,2.34,2.34,0,0,1,1.115.393,1.334,1.334,0,0,0-.577,1.054c.077,1.763,4.664.079,5.478,3.933-.854-.406-1.929-.257-2.835-.576-1.305-.458-2.432.085-3.5-.026a28.426,28.426,0,0,0-3.588-.473c-.979,0-2.821-1.751-3.952-3.058A1.819,1.819,0,0,1,110.085,158.9Zm16.112,8.849c-1.548.963-3.236-1.376-5.278-1.159-1.6.151-2.335-1.611-3.892-1.832-1.447-.207-5.214.558-7.368-2.123a3.017,3.017,0,0,1-.884-2.5c.961,1.078,3.03,3.189,4.522,3.189,1.527,0,1.313.245,3.485.467,1.128.116,2.315-.361,3.268-.025,1.2.423,2.56.2,2.968.688,1.25,1.5,2.657.012,3.132.48C126.915,165.915,127.217,167.12,126.2,167.753Z" fill="#000000"></path></g></svg>